<svg width="84" height="84" viewBox="0 0 84 84" fill="none" xmlns="http://www.w3.org/2000/svg">
<path d="M76.6249 15.8671C74.2899 13.5262 71.025 12.0672 67.4547 12.0685L15.5797 12.0685C12.0101 12.0672 8.74518 13.5262 6.40951 15.8671C4.06865 18.2034 2.60902 21.467 2.61096 25.0373L2.61096 54.7079C2.60902 58.2788 4.06865 61.543 6.40951 63.8787C8.74518 66.2196 12.0101 67.6792 15.5797 67.6766L16.8876 67.6766L20.5539 78.7098C20.8249 79.5741 21.6724 79.8076 22.459 79.8076C23.2449 79.8076 23.7974 79.355 24.3634 78.7098L33.4344 67.6766L67.4547 67.6766C71.025 67.6792 74.2905 66.2196 76.6256 63.8787C78.9671 61.543 80.4254 58.2788 80.4235 54.7079L80.4235 25.0373C80.4254 21.467 78.9671 18.2034 76.6249 15.8671ZM68.961 53.8467C68.961 55.0865 67.9592 56.0916 66.722 56.0916L16.3118 56.0916C15.0739 56.0916 14.0727 55.0865 14.0727 53.8467L14.0727 52.0681C14.0727 50.8276 15.0739 49.8219 16.3118 49.8219L66.722 49.8219C67.9592 49.8219 68.961 50.8276 68.961 52.0681L68.961 53.8467ZM68.961 40.7061C68.961 41.9466 67.9592 42.9517 66.722 42.9517L16.3118 42.9517C15.0739 42.9517 14.0727 41.9466 14.0727 40.7061L14.0727 38.9268C14.0727 37.687 15.0739 36.6819 16.3118 36.6819L66.722 36.6819C67.9592 36.6819 68.961 37.687 68.961 38.9268L68.961 40.7061ZM68.961 27.5662C68.961 28.8067 67.9592 29.8117 66.722 29.8117L16.3118 29.8117C15.0739 29.8117 14.0727 28.8067 14.0727 27.5662L14.0727 25.7869C14.0727 24.5471 15.0739 23.5413 16.3118 23.5413L66.722 23.5413C67.9592 23.5413 68.961 24.5471 68.961 25.7869L68.961 27.5662Z" fill="#232323"/>
</svg>
