<svg width="59" height="65" viewBox="0 0 59 65" fill="none" xmlns="http://www.w3.org/2000/svg">
<path d="M58.546 17.6145L57.303 12.6369C57.0339 11.5526 56.4101 10.5897 55.5311 9.90197C54.652 9.21422 53.5684 8.84118 52.453 8.84238L41.353 8.84238L39.925 3.10448C39.7626 2.45427 39.3879 1.87709 38.8604 1.4647C38.333 1.05232 37.6831 0.828402 37.014 0.828552L22.138 0.828552C21.4689 0.828402 20.8189 1.05232 20.2915 1.4647C19.764 1.87709 19.3893 2.45427 19.227 3.10448L17.795 8.84238L6.69896 8.84238C5.5837 8.84113 4.50013 9.21402 3.62109 9.90158C2.74205 10.5891 2.11817 11.5518 1.84896 12.6359L0.605962 17.6145C0.569025 17.7622 0.566188 17.9164 0.597667 18.0654C0.629146 18.2144 0.694112 18.3542 0.787628 18.4742C0.881144 18.5943 1.00075 18.6914 1.13735 18.7582C1.27395 18.825 1.42396 18.8597 1.57596 18.8597L5.65896 18.8597L9.57596 64.0246C9.59778 64.2749 9.71269 64.5079 9.89792 64.6773C10.0831 64.8467 10.3252 64.9402 10.576 64.9392L44.576 64.9392C44.8412 64.9392 45.0955 64.8337 45.2831 64.6458C45.4706 64.4579 45.576 64.2031 45.576 63.9375C45.576 63.6718 45.4706 63.417 45.2831 63.2291C45.0955 63.0413 44.8412 62.9357 44.576 62.9357L11.493 62.9357L7.66696 18.8597L51.485 18.8597L47.576 63.8503C47.564 63.982 47.5783 64.1148 47.6178 64.241C47.6574 64.3672 47.7215 64.4843 47.8065 64.5855C47.8915 64.6868 47.9956 64.7701 48.1129 64.8308C48.2302 64.8915 48.3584 64.9284 48.49 64.9392C48.5186 64.9407 48.5473 64.9407 48.576 64.9392C48.8268 64.9402 49.0688 64.8467 49.254 64.6773C49.4392 64.5079 49.5541 64.2749 49.576 64.0246L53.493 18.8597L57.576 18.8597C57.728 18.8597 57.878 18.825 58.0146 18.7582C58.1512 18.6914 58.2708 18.5943 58.3643 18.4742C58.4578 18.3542 58.5228 18.2144 58.5543 18.0654C58.5857 17.9164 58.5829 17.7622 58.546 17.6145ZM21.167 3.59032C21.2212 3.37353 21.3462 3.18113 21.5221 3.04372C21.6981 2.90632 21.9149 2.83179 22.138 2.83201L37.014 2.83201C37.2372 2.83185 37.4541 2.90651 37.63 3.04412C37.806 3.18172 37.9309 3.37435 37.985 3.59132L39.295 8.84238L19.857 8.84238L21.167 3.59032ZM2.85696 16.8562L3.78896 13.1218C3.95129 12.4717 4.32583 11.8947 4.85309 11.4823C5.38034 11.0699 6.03004 10.8459 6.69896 10.8458L52.453 10.8458C53.1219 10.8459 53.7716 11.0699 54.2988 11.4823C54.8261 11.8947 55.2006 12.4717 55.363 13.1218L56.295 16.8562L2.85696 16.8562Z" fill="black"/>
<path d="M26.576 27.8752L26.576 53.9202C26.576 54.7172 26.892 55.4816 27.4546 56.0452C28.0172 56.6088 28.7803 56.9254 29.576 56.9254C30.3716 56.9254 31.1347 56.6088 31.6973 56.0452C32.2599 55.4816 32.576 54.7172 32.576 53.9202L32.576 27.8752C32.576 27.0782 32.2599 26.3138 31.6973 25.7503C31.1347 25.1867 30.3716 24.8701 29.576 24.8701C28.7803 24.8701 28.0172 25.1867 27.4546 25.7503C26.892 26.3138 26.576 27.0782 26.576 27.8752ZM30.576 27.8752L30.576 53.9202C30.576 54.1859 30.4706 54.4407 30.2831 54.6285C30.0955 54.8164 29.8412 54.9219 29.576 54.9219C29.3107 54.9219 29.0564 54.8164 28.8689 54.6285C28.6813 54.4407 28.576 54.1859 28.576 53.9202L28.576 27.8752C28.576 27.6096 28.6813 27.3548 28.8689 27.1669C29.0564 26.9791 29.3107 26.8735 29.576 26.8735C29.8412 26.8735 30.0955 26.9791 30.2831 27.1669C30.4706 27.3548 30.576 27.6096 30.576 27.8752Z" fill="black"/>
<path d="M16.346 24.879C15.5527 24.9402 14.8162 25.3145 14.2984 25.9196C13.7806 26.5246 13.524 27.311 13.585 28.1056L15.585 54.1506C15.6456 54.9044 15.9867 55.608 16.5406 56.1219C17.0946 56.6358 17.821 56.9225 18.576 56.9253C18.652 56.9253 18.728 56.9253 18.808 56.9163C19.6012 56.8552 20.3377 56.4809 20.8555 55.8758C21.3733 55.2707 21.6299 54.4844 21.569 53.6898L19.569 27.6448C19.5049 26.851 19.1301 26.1148 18.5263 25.5967C17.9226 25.0786 17.1388 24.8207 16.346 24.879ZM19.576 53.843C19.5865 53.9745 19.571 54.1068 19.5303 54.2322C19.4897 54.3577 19.4247 54.4738 19.3392 54.5741C19.2536 54.6743 19.1491 54.7566 19.0317 54.8163C18.9143 54.876 18.7863 54.9119 18.655 54.9219L18.576 54.9219C18.3234 54.9226 18.0799 54.8276 17.8944 54.6559C17.7089 54.4842 17.5952 54.2486 17.576 53.9963L15.576 27.9513C15.5656 27.8198 15.5813 27.6875 15.6221 27.562C15.6629 27.4366 15.7281 27.3204 15.8139 27.2203C15.8996 27.1201 16.0043 27.0379 16.1219 26.9784C16.2394 26.9189 16.3676 26.8832 16.499 26.8735C16.5263 26.8735 16.5533 26.8735 16.58 26.8735C16.8319 26.8719 17.075 26.9667 17.2595 27.1385C17.444 27.3103 17.5562 27.5463 17.573 27.7981L19.576 53.843Z" fill="black"/>
<path d="M39.585 27.6449L37.585 53.6898C37.5549 54.0833 37.6026 54.4789 37.7252 54.854C37.8478 55.2291 38.0429 55.5763 38.2995 55.8759C38.5561 56.1754 38.869 56.4214 39.2205 56.5997C39.572 56.7781 39.9551 56.8853 40.348 56.9154C40.426 56.9214 40.502 56.9244 40.578 56.9244C41.3326 56.9211 42.0585 56.6341 42.612 56.1202C43.1656 55.6064 43.5063 54.9031 43.567 54.1496L45.567 28.1046C45.6192 27.3149 45.3582 26.5364 44.8408 25.9382C44.3234 25.34 43.5913 24.9705 42.8035 24.9098C42.0157 24.8491 41.2358 25.1022 40.6332 25.6141C40.0306 26.126 39.6539 26.8554 39.585 27.6439L39.585 27.6449ZM43.576 27.9524L41.576 53.9973C41.5565 54.2494 41.4427 54.4848 41.2572 54.6563C41.0717 54.8278 40.8284 54.9227 40.576 54.9219L40.497 54.9219C40.3658 54.9119 40.2378 54.8761 40.1205 54.8165C40.0031 54.7568 39.8987 54.6746 39.8131 54.5745C39.7276 54.4744 39.6626 54.3583 39.6219 54.233C39.5812 54.1076 39.5656 53.9755 39.576 53.8441L41.576 27.7991C41.5926 27.5459 41.7056 27.3087 41.8916 27.1365C42.0777 26.9643 42.3227 26.8702 42.576 26.8735L42.657 26.8735C42.7881 26.8838 42.9159 26.9198 43.0331 26.9796C43.1503 27.0394 43.2545 27.1218 43.3399 27.222C43.4252 27.3222 43.49 27.4383 43.5305 27.5636C43.5711 27.689 43.5865 27.8211 43.576 27.9524Z" fill="black"/>
</svg>
