<svg width="622" height="640" viewBox="0 0 622 640" fill="none" xmlns="http://www.w3.org/2000/svg">
<path d="M311 0L530.91 93.7258L622 320L530.91 546.274L311 640L91.0898 546.274L0 320L91.0898 93.7258L311 0Z" fill="#77A8A3"/>
<path d="M143.1 405H91L94.3 400V393.7L102.5 386.4L94.3 390.6V345.2L103 341.3H94.3V335L91 330H142.6L152.1 337.1V360.8L146.9 368.7L152.1 364.4V394.9L143.1 405ZM123.8 393.7C125.8 393.7 127.5 393 128.9 391.6C130.367 390.2 131.1 388.5 131.1 386.5V348.5C131.1 346.5 130.367 344.8 128.9 343.4C127.5 342 125.8 341.3 123.8 341.3H115.1V393.7H123.8Z" fill="black"/>
<path d="M197.398 405.1H164.998C161.864 405.1 159.164 404 156.898 401.8C154.698 399.6 153.598 396.933 153.598 393.8L161.798 386.4L153.598 390.1V355.7L162.398 351.9H153.598C153.598 348.767 154.698 346.1 156.898 343.9C159.164 341.633 161.864 340.5 164.998 340.5H197.398C200.531 340.5 203.198 341.633 205.398 343.9C207.598 346.1 208.698 348.767 208.698 351.9V374.3L200.698 378.6H208.698V393.8C208.698 396.933 207.598 399.6 205.398 401.8C203.198 404 200.531 405.1 197.398 405.1ZM184.598 393.7C185.998 393.7 187.164 393.233 188.098 392.3C189.098 391.3 189.598 390.1 189.598 388.7V356.9C189.598 355.5 189.098 354.3 188.098 353.3C187.164 352.3 185.998 351.8 184.598 351.8H179.598C178.198 351.8 176.998 352.3 175.998 353.3C174.998 354.3 174.498 355.5 174.498 356.9V388.7C174.498 390.1 174.964 391.3 175.898 392.3C176.898 393.233 178.164 393.7 179.698 393.7C181.298 393.7 182.931 393.7 184.598 393.7Z" fill="black"/>
<path d="M279.538 405.1H252.538L255.038 401.6V392.8L234.938 370.3L234.838 401.6L237.438 405.1H210.438L213.438 401.2V394.1H221.438L213.438 390.5V355.6L222.138 351.8H213.438V345.5L210.238 340.6H234.338L255.038 363.8V345.6L250.738 340.6H279.938L276.538 345.6V351.8H267.838L276.538 355.7V390.5L268.538 394.1H276.538V401.2L279.538 405.1Z" fill="black"/>
<path d="M346.53 405.1H281.43L285.33 400.1V379.6L322.43 361.7V351.9H310.33C309.263 351.9 308.363 352.3 307.63 353.1C306.896 353.833 306.53 354.733 306.53 355.8V360.2L285.33 369.4V349.8L292.93 345.7H285.33L281.43 340.7H346.53L343.23 345.7V351.9L335.13 359.3L343.23 355.1V390L334.53 393.8H343.23V400.1L346.53 405.1ZM322.43 393.8V371.3L320.23 378.4L306.53 384.9L306.43 391.1C306.43 391.833 306.696 392.467 307.23 393C307.83 393.533 308.496 393.8 309.23 393.8H322.43Z" fill="black"/>
<path d="M413.131 405.1H348.031L351.331 400.1V393.8L359.431 386.5L351.331 390.7V355.8L359.931 351.9H351.331V345.7L348.031 340.7H376.831L372.131 344.4V393.8H384.131C385.265 393.8 386.198 393.433 386.931 392.7C387.665 391.967 388.031 391.067 388.031 390V385.6L409.231 376.4L409.131 396L401.531 400.1H409.131L413.131 405.1Z" fill="black"/>
<path d="M459.233 405.2H414.633L417.933 400.2V397.1L426.033 389.8L417.933 394V355.6L426.533 351.8H417.933V345.5L414.633 340.5H459.233C463.833 340.5 467.733 342.133 470.933 345.4C474.199 348.667 475.833 352.567 475.833 357.1V367.7L467.833 371.9H475.833V388.6C475.833 393.133 474.199 397.033 470.933 400.3C467.733 403.567 463.833 405.2 459.233 405.2ZM450.733 397.1C451.866 397.1 452.799 396.733 453.533 396C454.266 395.267 454.633 394.367 454.633 393.3V354.5C454.633 353.767 454.366 353.133 453.833 352.6C453.299 352.067 452.633 351.8 451.833 351.8H438.733V397.1H450.733Z" fill="black"/>
<path d="M477.428 405.2L480.528 400.6V392L502.428 383.4V393.2L493.728 397.4L515.728 397.5V386.8L480.528 370.4V355.7L489.228 351.9H480.528V345.6L477.328 340.6H541.528L537.528 345.6V357.2L515.728 367.8L515.628 355.9L523.528 351.9H501.328V364.7L537.928 381.7V399.7L541.528 405.1L477.428 405.2Z" fill="black"/>
<path d="M326.19 287.07H307.29L309.39 284.34V279.37H314.99L309.39 276.85V271.18H306.31V266.7L304.28 271.25H296.51V284.62L298.33 287.07H279.43L281.53 284.34V279.37H287.13L281.53 276.85V245L279.01 242.27H271.66V284.62L273.48 287.07H254.58L256.68 284.34V279.37H262.28L256.68 276.85V244.93L262.77 242.27H246.67L246.6 250.18L236.87 246.4V237.86L234.07 234.36H299.24L296.44 237.86V247.66H292.03L296.51 249.69V261.87H308.9L309.39 261.45V245.07L306.59 241.92H327.66L324.3 244.51V247.66H319.89L324.37 249.69V284.62L326.19 287.07Z" fill="black"/>
<path d="M375.89 287.07H330.25L332.56 283.57V279.16L338.3 274.05L332.56 276.99V252.56L338.65 249.83H332.56V245.49L330.25 241.99H375.89L373.09 245.49V259.77L347.12 272.37V279.16H355.59C356.337 279.16 356.967 278.903 357.48 278.39C358.04 277.877 358.32 277.247 358.32 276.5V273.42L373.09 266.98V280.7L367.77 283.57H373.09L375.89 287.07ZM347.12 265.65L348.73 260.68L358.32 256.13V251.79C358.32 251.277 358.133 250.833 357.76 250.46C357.387 250.04 356.92 249.83 356.36 249.83H347.12V265.65Z" fill="black"/>
</svg>
