<svg width="996" height="406" viewBox="0 0 996 406" fill="none" xmlns="http://www.w3.org/2000/svg">
<path d="M495.343 18.0734C496.916 17.8834 498.506 17.8809 500.08 18.066L790.925 52.2889C793.243 52.5615 795.494 53.2375 797.578 54.2861L966.928 139.501C973.669 142.893 977.927 149.79 977.939 157.336L978.079 247.208C978.091 254.754 973.854 261.664 967.124 265.077L798.041 350.82C795.96 351.875 793.711 352.558 791.394 352.838L500.657 387.968C499.084 388.158 497.494 388.161 495.92 387.976L205.074 353.753C202.757 353.48 200.506 352.804 198.422 351.756L29.0715 266.541C22.3309 263.149 18.0731 256.252 18.0614 248.706L17.9212 158.833C17.9094 151.288 22.1456 144.377 28.8756 140.965L197.959 55.2216C200.04 54.1664 202.289 53.4834 204.606 53.2036L495.343 18.0734Z" fill="#D9D9D9"/>
<path fill-rule="evenodd" clip-rule="evenodd" d="M502.066 1.18245L792.912 35.4053C797.199 35.9097 801.364 37.1602 805.219 39.1002L974.57 124.315C987.04 130.59 994.917 143.349 994.939 157.309L995.079 247.182C995.101 261.142 987.264 273.925 974.813 280.239L805.729 365.982C801.88 367.934 797.719 369.198 793.434 369.715L502.696 404.846C499.786 405.197 496.845 405.202 493.934 404.859L203.088 370.636C198.801 370.132 194.636 368.881 190.781 366.941L21.4302 281.726C8.96008 275.452 1.08318 262.692 1.0614 248.733L0.921196 158.86C0.899418 144.9 8.73648 132.116 21.187 125.803L190.271 40.0596C194.12 38.1075 198.281 36.844 202.566 36.3263L493.304 1.19612C496.214 0.844518 499.155 0.839924 502.066 1.18245ZM500.08 18.066C498.506 17.8808 496.916 17.8833 495.343 18.0734L204.606 53.2035C202.289 53.4834 200.04 54.1663 197.959 55.2215L28.8756 140.965C22.1457 144.377 17.9094 151.287 17.9212 158.833L18.0614 248.706C18.0732 256.252 22.3309 263.149 29.0715 266.541L198.422 351.756C200.506 352.804 202.757 353.48 205.074 353.753L495.92 387.976C497.494 388.161 499.084 388.158 500.657 387.968L791.394 352.838C793.711 352.558 795.96 351.875 798.041 350.82L967.124 265.077C973.854 261.664 978.091 254.754 978.079 247.208L977.939 157.336C977.927 149.79 973.669 142.893 966.929 139.501L797.578 54.2861C795.494 53.2374 793.243 52.5615 790.925 52.2888L500.08 18.066Z" fill="url(#paint0_linear_58_29)" fill-opacity="0.2"/>
<path d="M567.89 161.07H522.25L524.56 157.57V153.16L530.3 148.05L524.56 150.99V126.56L530.65 123.83H524.56V119.49L522.25 115.99H567.89L565.09 119.49V133.77L539.12 146.37V153.16H547.59C548.337 153.16 548.967 152.903 549.48 152.39C550.04 151.877 550.32 151.247 550.32 150.5V147.42L565.09 140.98V154.7L559.77 157.57H565.09L567.89 161.07ZM539.12 139.65L540.73 134.68L550.32 130.13V125.79C550.32 125.277 550.133 124.833 549.76 124.46C549.387 124.04 548.92 123.83 548.36 123.83H539.12V139.65Z" fill="black"/>
<path d="M518.19 161.07H499.29L501.39 158.34V153.37H506.99L501.39 150.85V145.18H498.31V140.7L496.28 145.25H488.51V158.62L490.33 161.07H471.43L473.53 158.34V153.37H479.13L473.53 150.85V119L471.01 116.27H463.66V158.62L465.48 161.07H446.58L448.68 158.34V153.37H454.28L448.68 150.85V118.93L454.77 116.27H438.67L438.6 124.18L428.87 120.4V111.86L426.07 108.36H491.24L488.44 111.86V121.66H484.03L488.51 123.69V135.87H500.9L501.39 135.45V119.07L498.59 115.92H519.66L516.3 118.51V121.66H511.89L516.37 123.69V158.62L518.19 161.07Z" fill="black"/>
<path d="M673.428 273.2L676.528 268.6V260L698.428 251.4V261.2L689.728 265.4L711.728 265.5V254.8L676.528 238.4V223.7L685.228 219.9H676.528V213.6L673.328 208.6H737.528L733.528 213.6V225.2L711.728 235.8L711.628 223.9L719.528 219.9H697.328V232.7L733.928 249.7V267.7L737.528 273.1L673.428 273.2Z" fill="black"/>
<path d="M655.233 273.2H610.633L613.933 268.2V265.1L622.033 257.8L613.933 262V223.6L622.533 219.8H613.933V213.5L610.633 208.5H655.233C659.833 208.5 663.733 210.133 666.933 213.4C670.199 216.667 671.833 220.567 671.833 225.1V235.7L663.833 239.9H671.833V256.6C671.833 261.133 670.199 265.033 666.933 268.3C663.733 271.567 659.833 273.2 655.233 273.2ZM646.733 265.1C647.866 265.1 648.799 264.733 649.533 264C650.266 263.267 650.633 262.367 650.633 261.3V222.5C650.633 221.767 650.366 221.133 649.833 220.6C649.299 220.067 648.633 219.8 647.833 219.8H634.733V265.1H646.733Z" fill="black"/>
<path d="M609.131 273.1H544.031L547.331 268.1V261.8L555.431 254.5L547.331 258.7V223.8L555.931 219.9H547.331V213.7L544.031 208.7H572.831L568.131 212.4V261.8H580.131C581.265 261.8 582.198 261.433 582.931 260.7C583.665 259.967 584.031 259.067 584.031 258V253.6L605.231 244.4L605.131 264L597.531 268.1H605.131L609.131 273.1Z" fill="black"/>
<path d="M542.53 273.1H477.43L481.33 268.1V247.6L518.43 229.7V219.9H506.33C505.263 219.9 504.363 220.3 503.63 221.1C502.896 221.833 502.53 222.733 502.53 223.8V228.2L481.33 237.4V217.8L488.93 213.7H481.33L477.43 208.7H542.53L539.23 213.7V219.9L531.13 227.3L539.23 223.1V258L530.53 261.8H539.23V268.1L542.53 273.1ZM518.43 261.8V239.3L516.23 246.4L502.53 252.9L502.43 259.1C502.43 259.833 502.696 260.467 503.23 261C503.83 261.533 504.496 261.8 505.23 261.8H518.43Z" fill="black"/>
<path d="M475.538 273.1H448.538L451.038 269.6V260.8L430.938 238.3L430.838 269.6L433.438 273.1H406.438L409.438 269.2V262.1H417.438L409.438 258.5V223.6L418.138 219.8H409.438V213.5L406.238 208.6H430.338L451.038 231.8V213.6L446.738 208.6H475.938L472.538 213.6V219.8H463.838L472.538 223.7V258.5L464.538 262.1H472.538V269.2L475.538 273.1Z" fill="black"/>
<path d="M393.398 273.1H360.998C357.864 273.1 355.164 272 352.898 269.8C350.698 267.6 349.598 264.933 349.598 261.8L357.798 254.4L349.598 258.1V223.7L358.398 219.9H349.598C349.598 216.767 350.698 214.1 352.898 211.9C355.164 209.633 357.864 208.5 360.998 208.5H393.398C396.531 208.5 399.198 209.633 401.398 211.9C403.598 214.1 404.698 216.767 404.698 219.9V242.3L396.698 246.6H404.698V261.8C404.698 264.933 403.598 267.6 401.398 269.8C399.198 272 396.531 273.1 393.398 273.1ZM380.598 261.7C381.998 261.7 383.164 261.233 384.098 260.3C385.098 259.3 385.598 258.1 385.598 256.7V224.9C385.598 223.5 385.098 222.3 384.098 221.3C383.164 220.3 381.998 219.8 380.598 219.8H375.598C374.198 219.8 372.998 220.3 371.998 221.3C370.998 222.3 370.498 223.5 370.498 224.9V256.7C370.498 258.1 370.964 259.3 371.898 260.3C372.898 261.233 374.164 261.7 375.698 261.7C377.298 261.7 378.931 261.7 380.598 261.7Z" fill="black"/>
<path d="M339.1 273H287L290.3 268V261.7L298.5 254.4L290.3 258.6V213.2L299 209.3H290.3V203L287 198H338.6L348.1 205.1V228.8L342.9 236.7L348.1 232.4V262.9L339.1 273ZM319.8 261.7C321.8 261.7 323.5 261 324.9 259.6C326.367 258.2 327.1 256.5 327.1 254.5V216.5C327.1 214.5 326.367 212.8 324.9 211.4C323.5 210 321.8 209.3 319.8 209.3H311.1V261.7H319.8Z" fill="black"/>
<defs>
<linearGradient id="paint0_linear_58_29" x1="920.199" y1="202.815" x2="118.083" y2="183.622" gradientUnits="userSpaceOnUse">
<stop offset="0.085" stop-color="#EC032A"/>
<stop offset="0.34" stop-color="#E17B7B"/>
<stop offset="0.573791" stop-color="#EC032A"/>
<stop offset="0.8207" stop-color="#E17B7B"/>
<stop offset="0.982008" stop-color="#EC032A"/>
</linearGradient>
</defs>
</svg>
