<?xml version="1.0" encoding="UTF-8"?>
<!DOCTYPE svg PUBLIC "-//W3C//DTD SVG 1.1//EN" "http://www.w3.org/Graphics/SVG/1.1/DTD/svg11.dtd">
<svg xmlns="http://www.w3.org/2000/svg" version="1.1" width="500px" height="500px" style="shape-rendering:geometricPrecision; text-rendering:geometricPrecision; image-rendering:optimizeQuality; fill-rule:evenodd; clip-rule:evenodd" xmlns:xlink="http://www.w3.org/1999/xlink">
<g><path style="opacity:1" fill="#b5e3f2" d="M 368.5,100.5 C 349.497,100.333 330.497,100.5 311.5,101C 308.833,103.667 308.833,106.333 311.5,109C 334.498,109.5 357.498,109.667 380.5,109.5C 379.444,110.877 378.111,111.71 376.5,112C 378.81,112.497 381.143,112.663 383.5,112.5C 383.921,114.91 385.254,116.743 387.5,118C 386.271,119.529 384.771,120.696 383,121.5C 382.517,122.448 382.351,123.448 382.5,124.5C 384.167,124.5 385.833,124.5 387.5,124.5C 387.5,125.5 387.5,126.5 387.5,127.5C 385.265,127.205 383.265,127.539 381.5,128.5C 379.752,130.16 379.252,132.16 380,134.5C 380.671,135.252 381.504,135.586 382.5,135.5C 382.825,137.132 383.825,138.132 385.5,138.5C 389.023,137.938 392.523,137.605 396,137.5C 397.395,137.78 398.562,138.447 399.5,139.5C 394.321,141.101 388.988,141.934 383.5,142C 384.167,142.333 384.833,142.667 385.5,143C 382.167,144 378.833,145 375.5,146C 373.069,149.699 373.069,153.532 375.5,157.5C 376.328,158.415 377.328,159.081 378.5,159.5C 379.72,158.289 380.887,158.289 382,159.5C 382.981,156.311 384.314,155.978 386,158.5C 390.133,157.69 394.633,157.356 399.5,157.5C 399.5,158.833 399.5,160.167 399.5,161.5C 397.738,161.643 396.071,161.309 394.5,160.5C 393.526,162.743 393.192,165.076 393.5,167.5C 389.658,166.5 386.158,164.833 383,162.5C 381.166,165.438 379.666,168.438 378.5,171.5C 377.475,172.374 376.808,173.541 376.5,175C 377.682,176.49 378.682,177.823 379.5,179C 376.887,181.539 373.72,182.706 370,182.5C 361.828,181.316 353.662,181.316 345.5,182.5C 344.975,183.192 344.308,183.692 343.5,184C 353.368,184.198 362.535,184.031 371,183.5C 372.87,184.743 375.036,185.41 377.5,185.5C 381.868,186.425 384.868,184.925 386.5,181C 391.436,178.559 393.103,180.392 391.5,186.5C 373.132,188.428 354.466,188.928 335.5,188C 334.167,187 334.167,186 335.5,185C 338.966,185.122 341.632,183.789 343.5,181C 342.833,180 342.167,179 341.5,178C 342.455,176.283 343.455,174.616 344.5,173C 343.906,172.536 343.239,172.369 342.5,172.5C 344.128,167.91 346.295,163.577 349,159.5C 349.895,151.449 347.061,144.949 340.5,140C 310.833,122.502 281.499,104.502 252.5,86C 242.639,82.3553 234.806,84.8553 229,93.5C 212.304,120.34 195.47,147.007 178.5,173.5C 178.196,172.85 177.863,172.183 177.5,171.5C 180.115,166.438 183.115,161.605 186.5,157C 185.809,155.933 185.309,154.766 185,153.5C 180.582,153.731 175.749,153.897 170.5,154C 169.465,155.507 169.632,157.007 171,158.5C 171.718,157.549 172.551,157.383 173.5,158C 171.786,162.668 170.286,167.501 169,172.5C 168.506,170.866 168.34,169.199 168.5,167.5C 166.167,167.5 163.833,167.5 161.5,167.5C 161.688,165.897 161.188,164.563 160,163.5C 159.818,166.226 159.318,168.893 158.5,171.5C 155.45,171.997 154.45,173.497 155.5,176C 151.459,176.827 147.459,176.66 143.5,175.5C 143.833,175.167 144.167,174.833 144.5,174.5C 146.747,175.374 149.08,175.708 151.5,175.5C 151.703,173.61 151.037,172.11 149.5,171C 149.957,170.586 150.291,170.086 150.5,169.5C 147.783,169.001 145.449,167.835 143.5,166C 146.117,165.838 148.784,165.005 151.5,163.5C 151.67,162.178 151.337,161.011 150.5,160C 148.5,159.667 146.5,159.333 144.5,159C 145.5,158.167 146.5,157.333 147.5,156.5C 146.667,156.167 145.833,155.833 145,155.5C 139.775,155.321 133.942,155.821 127.5,157C 131.449,157.807 131.449,158.307 127.5,158.5C 126.955,162.172 126.622,161.838 126.5,157.5C 121.752,157.275 117.085,157.775 112.5,159C 115.436,160.045 118.436,160.879 121.5,161.5C 125.191,163.317 125.357,165.317 122,167.5C 122.026,163.695 120.192,161.695 116.5,161.5C 113.212,161.016 110.545,162.016 108.5,164.5C 106.55,165.498 104.55,165.332 102.5,164C 102.833,163.667 103.167,163.333 103.5,163C 102.541,161.536 101.208,160.703 99.5,160.5C 93.3983,161.89 87.3983,161.556 81.5,159.5C 81.5818,155.734 83.0818,152.734 86,150.5C 88.1667,152 88,153.167 85.5,154C 86.8491,154.772 87.6824,155.939 88,157.5C 88.7412,156.359 89.5745,156.359 90.5,157.5C 91.731,156.349 91.731,155.183 90.5,154C 92.1193,153.764 93.1193,152.931 93.5,151.5C 118.836,151.667 144.169,151.5 169.5,151C 176.063,148.217 179.063,143.217 178.5,136C 177.042,123.71 170.042,116.876 157.5,115.5C 156.608,112.048 154.942,109.048 152.5,106.5C 148.042,102.629 143.375,99.2956 138.5,96.5C 162.906,78.6306 190.239,67.4639 220.5,63C 271.323,56.2302 318.323,66.5635 361.5,94C 364.288,95.7186 366.621,97.8852 368.5,100.5 Z M 293.5,134.5 C 291.651,133.407 289.984,132.074 288.5,130.5C 286.313,129.242 283.98,128.242 281.5,127.5C 278.885,126.566 278.218,124.899 279.5,122.5C 277.702,119.711 277.202,116.711 278,113.5C 284.967,117.636 291.8,121.969 298.5,126.5C 297.877,129.167 296.877,131.667 295.5,134C 295.833,134.333 296.167,134.667 296.5,135C 295.423,135.47 294.423,135.303 293.5,134.5 Z M 267.5,124.5 C 267.5,124.833 267.5,125.167 267.5,125.5C 259.528,120.845 251.528,116.178 243.5,111.5C 243.167,111.5 242.833,111.5 242.5,111.5C 240.397,108.875 237.73,107.375 234.5,107C 227.614,115.937 221.614,125.437 216.5,135.5C 215.637,136.463 214.97,136.463 214.5,135.5C 220.765,123.956 227.765,112.956 235.5,102.5C 245.503,109.17 255.836,115.337 266.5,121C 267.337,122.011 267.67,123.178 267.5,124.5 Z M 265.5,109.5 C 262.833,108.167 260.167,106.833 257.5,105.5C 252.511,101.669 247.178,98.3359 241.5,95.5C 241.791,94.3509 242.624,93.6842 244,93.5C 251.184,96.8404 258.018,100.84 264.5,105.5C 265.429,106.689 265.762,108.022 265.5,109.5 Z M 311.5,134.5 C 309.408,137.681 307.075,140.681 304.5,143.5C 305.354,139.417 306.521,135.417 308,131.5C 309.145,132.636 310.312,133.636 311.5,134.5 Z"/></g>
<g><path style="opacity:1" fill="#1a2032" d="M 126.5,74.5 C 132.427,75.0229 134.26,78.0229 132,83.5C 127.676,86.4294 124.509,85.4294 122.5,80.5C 122.937,77.775 124.27,75.775 126.5,74.5 Z"/></g>
<g><path style="opacity:1" fill="#193348" d="M 186.5,88.5 C 192.209,87.6779 193.543,89.5112 190.5,94C 185.728,94.8104 184.395,92.9771 186.5,88.5 Z"/></g>
<g><path style="opacity:1" fill="#305e83" d="M 162.5,93.5 C 171.266,91.9192 173.933,95.0859 170.5,103C 165.117,105.961 161.784,104.461 160.5,98.5C 160.902,96.6998 161.569,95.0332 162.5,93.5 Z"/></g>
<g><path style="opacity:1" fill="#1b2c43" d="M 368.5,100.5 C 376.174,100.334 383.841,100.5 391.5,101C 394.167,103.667 394.167,106.333 391.5,109C 388.518,109.498 385.518,109.665 382.5,109.5C 381.833,109.5 381.167,109.5 380.5,109.5C 357.498,109.667 334.498,109.5 311.5,109C 308.833,106.333 308.833,103.667 311.5,101C 330.497,100.5 349.497,100.333 368.5,100.5 Z"/></g>
<g><path style="opacity:1" fill="#386685" d="M 197.5,110.5 C 203.158,109.679 204.825,111.846 202.5,117C 196.741,118.139 195.074,115.972 197.5,110.5 Z"/></g>
<g><path style="opacity:1" fill="#1a263e" d="M 342.5,172.5 C 338.362,177.419 334.696,182.753 331.5,188.5C 347.823,189.333 364.156,189.833 380.5,190C 383.333,190.833 385.167,192.667 386,195.5C 386.667,202.5 386.667,209.5 386,216.5C 382.634,221.686 377.801,223.686 371.5,222.5C 371.5,246.5 371.5,270.5 371.5,294.5C 372.959,294.433 374.292,294.766 375.5,295.5C 373.846,298.666 371.179,300.333 367.5,300.5C 366.554,296.665 364.221,295.665 360.5,297.5C 359.148,296.104 357.481,295.437 355.5,295.5C 348.039,295.799 340.705,296.799 333.5,298.5C 330.565,298.104 327.898,297.104 325.5,295.5C 323.833,296.833 322.167,296.833 320.5,295.5C 319.719,296.729 319.219,298.062 319,299.5C 317.757,298.664 316.59,298.997 315.5,300.5C 317.385,301.197 317.718,302.197 316.5,303.5C 312.287,306.1 308.287,308.933 304.5,312C 302.905,311.383 301.572,311.716 300.5,313C 300.957,313.414 301.291,313.914 301.5,314.5C 299.887,315.427 298.221,316.261 296.5,317C 297.552,318.716 296.886,319.716 294.5,320C 295.696,320.654 295.696,321.154 294.5,321.5C 293.571,320.311 293.238,318.978 293.5,317.5C 290.227,317.471 289.56,318.804 291.5,321.5C 289.3,323.253 288.133,325.586 288,328.5C 287.396,326.314 286.23,326.148 284.5,328C 286.004,329.337 287.004,331.004 287.5,333C 285.893,334.049 285.227,335.549 285.5,337.5C 284.178,337.33 283.011,337.663 282,338.5C 281.517,337.552 281.351,336.552 281.5,335.5C 278.282,335.651 277.949,336.484 280.5,338C 279.299,338.903 278.465,340.069 278,341.5C 277.329,340.748 276.496,340.414 275.5,340.5C 276.698,337.574 277.698,334.574 278.5,331.5C 281.936,324.048 286.603,317.382 292.5,311.5C 296.339,307.303 300.672,303.97 305.5,301.5C 306.167,301.5 306.5,301.167 306.5,300.5C 313.619,296.135 321.285,293.135 329.5,291.5C 332.43,290.701 335.43,290.368 338.5,290.5C 346.542,290.264 354.542,290.597 362.5,291.5C 362.5,268.5 362.5,245.5 362.5,222.5C 361.5,222.5 360.5,222.5 359.5,222.5C 361.969,221.683 364.635,221.183 367.5,221C 367.957,220.586 368.291,220.086 368.5,219.5C 359.882,217.845 351.215,216.512 342.5,215.5C 338.651,215.368 334.984,215.868 331.5,217C 338.158,217.5 344.825,217.666 351.5,217.5C 351.5,218.833 351.5,220.167 351.5,221.5C 340.473,221.618 329.473,221.118 318.5,220C 321.028,217.943 324.028,216.943 327.5,217C 322.342,215.548 317.342,215.714 312.5,217.5C 309.485,216.182 306.485,215.182 303.5,214.5C 328.339,214.831 353.006,214.498 377.5,213.5C 378.487,208.695 378.821,203.695 378.5,198.5C 377.5,198.5 376.5,198.5 375.5,198.5C 347.833,198.5 320.167,198.5 292.5,198.5C 290.833,198.5 289.167,198.5 287.5,198.5C 247.761,198.173 208.094,198.506 168.5,199.5C 161.007,198.834 153.341,198.5 145.5,198.5C 137.47,198.502 129.803,199.169 122.5,200.5C 121.662,200.842 121.328,201.508 121.5,202.5C 119.683,203.219 119.016,204.219 119.5,205.5C 118.614,204.675 118.281,203.675 118.5,202.5C 116.856,202.714 115.356,202.38 114,201.5C 113.501,205.486 113.334,209.486 113.5,213.5C 112.348,208.015 112.182,202.349 113,196.5C 113.792,194.413 114.959,192.579 116.5,191C 134.076,189.693 151.743,189.027 169.5,189C 173.155,184.188 176.155,179.021 178.5,173.5C 195.47,147.007 212.304,120.34 229,93.5C 234.806,84.8553 242.639,82.3553 252.5,86C 281.499,104.502 310.833,122.502 340.5,140C 347.061,144.949 349.895,151.449 349,159.5C 346.295,163.577 344.128,167.91 342.5,172.5 Z M 293.5,134.5 C 291.651,133.407 289.984,132.074 288.5,130.5C 286.313,129.242 283.98,128.242 281.5,127.5C 278.885,126.566 278.218,124.899 279.5,122.5C 277.702,119.711 277.202,116.711 278,113.5C 284.967,117.636 291.8,121.969 298.5,126.5C 297.877,129.167 296.877,131.667 295.5,134C 295.833,134.333 296.167,134.667 296.5,135C 295.423,135.47 294.423,135.303 293.5,134.5 Z M 267.5,124.5 C 267.5,124.833 267.5,125.167 267.5,125.5C 259.528,120.845 251.528,116.178 243.5,111.5C 243.167,111.5 242.833,111.5 242.5,111.5C 240.397,108.875 237.73,107.375 234.5,107C 227.614,115.937 221.614,125.437 216.5,135.5C 215.637,136.463 214.97,136.463 214.5,135.5C 220.765,123.956 227.765,112.956 235.5,102.5C 245.503,109.17 255.836,115.337 266.5,121C 267.337,122.011 267.67,123.178 267.5,124.5 Z M 265.5,109.5 C 262.833,108.167 260.167,106.833 257.5,105.5C 252.511,101.669 247.178,98.3359 241.5,95.5C 241.791,94.3509 242.624,93.6842 244,93.5C 251.184,96.8404 258.018,100.84 264.5,105.5C 265.429,106.689 265.762,108.022 265.5,109.5 Z M 311.5,134.5 C 309.408,137.681 307.075,140.681 304.5,143.5C 305.354,139.417 306.521,135.417 308,131.5C 309.145,132.636 310.312,133.636 311.5,134.5 Z M 214.5,147.5 C 235.635,161.572 256.968,175.405 278.5,189C 270.098,188.718 261.765,188.552 253.5,188.5C 246.202,189.559 238.869,189.726 231.5,189C 229.083,187.374 226.583,185.874 224,184.5C 222.229,185.304 220.729,186.471 219.5,188C 206.82,188.833 194.154,188.666 181.5,187.5C 190.93,172.969 200.096,158.302 209,143.5C 210.432,145.439 212.265,146.772 214.5,147.5 Z M 168.5,199.5 C 167.508,199.328 166.842,199.662 166.5,200.5C 164.167,200.5 161.833,200.5 159.5,200.5C 147.02,201.761 134.686,201.761 122.5,200.5C 129.803,199.169 137.47,198.502 145.5,198.5C 153.341,198.5 161.007,198.834 168.5,199.5 Z M 292.5,198.5 C 320.167,198.5 347.833,198.5 375.5,198.5C 375.167,199.167 374.833,199.833 374.5,200.5C 356.194,201.447 337.861,201.78 319.5,201.5C 312.011,200.671 304.344,200.171 296.5,200C 294.942,199.79 293.609,199.29 292.5,198.5 Z"/></g>
<g><path style="opacity:1" fill="#fc7972" d="M 242.5,111.5 C 242.833,111.5 243.167,111.5 243.5,111.5C 250.019,116.782 257.019,121.615 264.5,126C 266.028,128.917 267.361,131.917 268.5,135C 274.507,135.836 279.507,138.503 283.5,143C 286.064,144.396 288.731,145.563 291.5,146.5C 294.355,148.25 297.689,149.083 301.5,149C 298.972,150.316 298.972,151.483 301.5,152.5C 302.472,150.364 304.139,149.197 306.5,149C 305.332,147.129 305.832,145.629 308,144.5C 310.336,145.292 310.836,146.625 309.5,148.5C 310.243,149.182 310.909,149.849 311.5,150.5C 306.526,152.652 301.526,154.819 296.5,157C 290.473,163.769 289.973,170.936 295,178.5C 298.856,182.533 303.356,185.533 308.5,187.5C 304.689,188.645 300.689,188.812 296.5,188C 295.09,186.628 293.423,185.795 291.5,185.5C 289.973,185.573 288.973,184.906 288.5,183.5C 287.044,181.716 286.044,179.716 285.5,177.5C 280.721,177.221 277.054,175.055 274.5,171C 266.65,168.335 260.15,163.835 255,157.5C 253.951,158.517 252.784,158.684 251.5,158C 251.833,157.667 252.167,157.333 252.5,157C 245.453,156.312 244.787,153.979 250.5,150C 249.407,148.635 248.074,148.301 246.5,149C 245.005,150.161 243.505,151.327 242,152.5C 238.701,150.873 238.868,149.373 242.5,148C 239.131,148.509 235.798,148.343 232.5,147.5C 232.414,146.504 232.748,145.671 233.5,145C 231.084,144.339 229.418,142.839 228.5,140.5C 226.271,139.037 223.937,138.203 221.5,138C 223.283,136.933 223.783,135.433 223,133.5C 222.346,134.696 221.846,134.696 221.5,133.5C 222.289,131.512 223.455,131.179 225,132.5C 226.688,131.675 226.855,130.675 225.5,129.5C 227.453,128.239 229.453,127.073 231.5,126C 229.876,124.883 228.876,123.383 228.5,121.5C 229.188,117.791 230.688,114.457 233,111.5C 233.804,110.196 234.971,109.529 236.5,109.5C 238.325,110.651 240.325,111.318 242.5,111.5 Z"/></g>
<g><path style="opacity:0.067" fill="#aab3bf" d="M 287.5,127.5 C 289.937,127.886 291.937,129.053 293.5,131C 291.803,131.384 290.137,131.218 288.5,130.5C 288.443,129.391 288.11,128.391 287.5,127.5 Z"/></g>
<g><path style="opacity:1" fill="#eb7d79" d="M 242.5,111.5 C 240.325,111.318 238.325,110.651 236.5,109.5C 234.971,109.529 233.804,110.196 233,111.5C 230.688,114.457 229.188,117.791 228.5,121.5C 228.876,123.383 229.876,124.883 231.5,126C 229.453,127.073 227.453,128.239 225.5,129.5C 226.855,130.675 226.688,131.675 225,132.5C 223.455,131.179 222.289,131.512 221.5,133.5C 221.846,134.696 222.346,134.696 223,133.5C 223.783,135.433 223.283,136.933 221.5,138C 223.937,138.203 226.271,139.037 228.5,140.5C 229.418,142.839 231.084,144.339 233.5,145C 232.748,145.671 232.414,146.504 232.5,147.5C 227.473,145.317 222.807,142.483 218.5,139C 217.177,138.184 216.511,137.017 216.5,135.5C 221.614,125.437 227.614,115.937 234.5,107C 237.73,107.375 240.397,108.875 242.5,111.5 Z"/></g>
<g><path style="opacity:1" fill="#1a2f43" d="M 381.5,128.5 C 386.844,128.334 392.177,128.501 397.5,129C 400.195,130.416 400.861,132.416 399.5,135C 393.843,135.499 388.176,135.666 382.5,135.5C 381.504,135.586 380.671,135.252 380,134.5C 379.252,132.16 379.752,130.16 381.5,128.5 Z"/></g>
<g><path style="opacity:0.078" fill="#5d6588" d="M 281.5,127.5 C 283.98,128.242 286.313,129.242 288.5,130.5C 289.984,132.074 291.651,133.407 293.5,134.5C 288.879,133.191 284.879,130.858 281.5,127.5 Z"/></g>
<g><path style="opacity:1" fill="#d97c7f" d="M 243.5,111.5 C 251.528,116.178 259.528,120.845 267.5,125.5C 268.641,127.667 269.641,130 270.5,132.5C 278.085,136.441 285.085,141.108 291.5,146.5C 288.731,145.563 286.064,144.396 283.5,143C 279.507,138.503 274.507,135.836 268.5,135C 267.361,131.917 266.028,128.917 264.5,126C 257.019,121.615 250.019,116.782 243.5,111.5 Z"/></g>
<g><path style="opacity:1" fill="#275174" d="M 365.5,133.5 C 371.362,133.662 372.695,136.162 369.5,141C 365.833,142.073 363.833,140.74 363.5,137C 363.862,135.566 364.528,134.399 365.5,133.5 Z"/></g>
<g><path style="opacity:1" fill="#f07c76" d="M 311.5,134.5 C 318.131,137.148 324.131,140.815 329.5,145.5C 329.5,145.833 329.5,146.167 329.5,146.5C 329.289,149.848 328.289,152.848 326.5,155.5C 325.832,148 322.166,146 315.5,149.5C 314.041,149.433 312.708,149.766 311.5,150.5C 310.909,149.849 310.243,149.182 309.5,148.5C 310.836,146.625 310.336,145.292 308,144.5C 305.832,145.629 305.332,147.129 306.5,149C 304.139,149.197 302.472,150.364 301.5,152.5C 298.972,151.483 298.972,150.316 301.5,149C 297.689,149.083 294.355,148.25 291.5,146.5C 296.51,148.158 300.843,147.158 304.5,143.5C 307.075,140.681 309.408,137.681 311.5,134.5 Z"/></g>
<g><path style="opacity:1" fill="#192841" d="M 138.5,96.5 C 143.375,99.2956 148.042,102.629 152.5,106.5C 154.942,109.048 156.608,112.048 157.5,115.5C 170.042,116.876 177.042,123.71 178.5,136C 179.063,143.217 176.063,148.217 169.5,151C 144.169,151.5 118.836,151.667 93.5,151.5C 90.5372,149.539 87.8706,147.206 85.5,144.5C 82.3816,129.63 88.0483,119.963 102.5,115.5C 109.925,100.471 121.925,94.1378 138.5,96.5 Z M 104.5,125.5 C 102.14,128.527 99.4729,131.194 96.5,133.5C 95.8333,134.167 95.1667,134.833 94.5,135.5C 95.463,129.87 98.7964,126.537 104.5,125.5 Z M 131.5,106.5 C 128.319,108.412 124.985,110.245 121.5,112C 119.288,114.043 117.288,116.209 115.5,118.5C 114.614,117.675 114.281,116.675 114.5,115.5C 118.312,109.318 123.979,106.318 131.5,106.5 Z"/></g>
<g><path style="opacity:1" fill="#24466b" d="M 164.5,127.5 C 169.737,131.485 170.737,136.318 167.5,142C 143.33,142.83 119.33,142.663 95.5,141.5C 118.205,141.926 140.872,141.259 163.5,139.5C 164.833,139.167 166.167,138.833 167.5,138.5C 167.024,135.207 166.024,132.207 164.5,129.5C 164.5,128.833 164.5,128.167 164.5,127.5 Z"/></g>
<g><path style="opacity:1" fill="#26598a" d="M 164.5,129.5 C 166.024,132.207 167.024,135.207 167.5,138.5C 166.167,138.833 164.833,139.167 163.5,139.5C 140.872,141.259 118.205,141.926 95.5,141.5C 94.0582,140.18 93.3915,138.514 93.5,136.5C 94.1667,136.5 94.5,136.167 94.5,135.5C 95.1667,134.833 95.8333,134.167 96.5,133.5C 96.4142,134.496 96.7476,135.329 97.5,136C 112.83,136.5 128.163,136.667 143.5,136.5C 148.844,136.666 154.177,136.499 159.5,136C 162,134.513 163.666,132.346 164.5,129.5 Z"/></g>
<g><path style="opacity:1" fill="#649bc5" d="M 131.5,106.5 C 139.909,106.852 145.576,110.852 148.5,118.5C 146.491,121.354 144.657,124.354 143,127.5C 142.505,130.531 142.671,133.531 143.5,136.5C 128.163,136.667 112.83,136.5 97.5,136C 96.7476,135.329 96.4142,134.496 96.5,133.5C 99.4729,131.194 102.14,128.527 104.5,125.5C 106.265,124.539 108.265,124.205 110.5,124.5C 110.692,120.898 112.026,117.898 114.5,115.5C 114.281,116.675 114.614,117.675 115.5,118.5C 117.288,116.209 119.288,114.043 121.5,112C 124.985,110.245 128.319,108.412 131.5,106.5 Z"/></g>
<g><path style="opacity:1" fill="#326ca4" d="M 148.5,118.5 C 150.937,120.433 153.271,122.6 155.5,125C 158.722,125.199 161.722,126.032 164.5,127.5C 164.5,128.167 164.5,128.833 164.5,129.5C 163.666,132.346 162,134.513 159.5,136C 154.177,136.499 148.844,136.666 143.5,136.5C 142.671,133.531 142.505,130.531 143,127.5C 144.657,124.354 146.491,121.354 148.5,118.5 Z"/></g>
<g><path style="opacity:1" fill="#ae5161" d="M 329.5,146.5 C 329.5,146.167 329.5,145.833 329.5,145.5C 336.664,147.14 340.164,151.473 340,158.5C 337.812,161.567 335.645,164.567 333.5,167.5C 335.046,163.77 336.379,159.937 337.5,156C 337.576,153.244 336.243,152.077 333.5,152.5C 332.963,149.964 331.63,147.964 329.5,146.5 Z"/></g>
<g><path style="opacity:1" fill="#b4e3f2" d="M 410.5,182.5 C 413.167,183.833 415.833,183.833 418.5,182.5C 419.496,182.586 420.329,182.252 421,181.5C 421.273,179.899 421.773,178.399 422.5,177C 424.256,176.798 425.922,176.298 427.5,175.5C 427.291,174.914 426.957,174.414 426.5,174C 427.667,173.5 428.5,172.667 429,171.5C 430.303,173.94 431.47,176.44 432.5,179C 431.709,181.734 430.376,182.068 428.5,180C 430.966,179.07 430.799,178.237 428,177.5C 426.56,178.148 425.06,178.481 423.5,178.5C 423.481,180.06 423.148,181.56 422.5,183C 423.646,183.759 424.646,184.426 425.5,185C 424.107,186.301 423.607,187.801 424,189.5C 424.667,188.167 425.333,188.167 426,189.5C 427.487,188.747 427.654,187.914 426.5,187C 427.5,186.667 428.5,186.333 429.5,186C 428.72,184.927 428.887,183.76 430,182.5C 431.163,184.285 431.83,186.285 432,188.5C 432.739,187.426 433.739,186.759 435,186.5C 436.416,188.36 437.916,190.027 439.5,191.5C 451.118,221.029 454.951,251.696 451,283.5C 448.148,308.58 440.815,332.246 429,354.5C 427.669,356.996 425.836,358.996 423.5,360.5C 420.482,360.494 417.816,359.494 415.5,357.5C 415.399,347.101 413.399,337.101 409.5,327.5C 409.457,324.09 409.957,320.757 411,317.5C 412.098,316.033 413.598,315.199 415.5,315C 416.833,314.333 416.833,313.667 415.5,313C 418.29,313.233 421.123,313.733 424,314.5C 426.055,313.15 427.555,313.483 428.5,315.5C 431.696,312.452 433.196,308.786 433,304.5C 432.026,306.878 431.359,306.544 431,303.5C 430.333,304.833 429.667,306.167 429,307.5C 427.506,305.671 426.006,303.838 424.5,302C 424.613,300.72 425.28,299.887 426.5,299.5C 427.85,300.95 429.516,301.617 431.5,301.5C 431.509,299.692 431.009,298.025 430,296.5C 429.107,297.711 428.274,297.711 427.5,296.5C 428.515,295.319 429.681,294.319 431,293.5C 432.465,294.33 433.965,294.496 435.5,294C 433.934,293.392 432.6,292.558 431.5,291.5C 433.257,290.708 434.591,289.375 435.5,287.5C 436.799,288.09 437.632,289.09 438,290.5C 438.24,288.023 437.406,285.856 435.5,284C 435.833,283.667 436.167,283.333 436.5,283C 430.977,279.021 425.143,278.521 419,281.5C 415.855,279.894 415.022,277.561 416.5,274.5C 423.573,273.942 426.739,270.275 426,263.5C 425.167,262.667 424.333,261.833 423.5,261C 420.363,260.399 417.363,259.399 414.5,258C 409.014,240.07 403.348,240.07 397.5,258C 392.463,258.419 388.463,260.586 385.5,264.5C 383.29,265.455 382.957,266.955 384.5,269C 383.953,269.925 383.287,270.758 382.5,271.5C 380.362,267.544 377.528,264.211 374,261.5C 373.333,255.5 373.333,249.5 374,243.5C 375.539,242.454 375.705,241.121 374.5,239.5C 375.21,235.196 375.71,230.863 376,226.5C 379.107,224.028 382.607,222.195 386.5,221C 387.147,219.391 387.98,217.891 389,216.5C 389.333,216.833 389.667,217.167 390,217.5C 388.779,208.974 388.279,200.474 388.5,192C 390.367,191.289 391.867,191.789 393,193.5C 393.333,197.167 393.667,200.833 394,204.5C 395.084,203.335 395.917,202.002 396.5,200.5C 395.934,197.583 395.934,194.583 396.5,191.5C 408.169,191.642 408.169,190.476 396.5,188C 393.292,185.553 393.292,183.887 396.5,183C 393.934,181.374 394.101,179.874 397,178.5C 397.333,179.5 397.667,180.5 398,181.5C 398.333,177.833 398.667,174.167 399,170.5C 399.5,169.333 400.333,168.5 401.5,168C 400.027,167.29 399.36,166.124 399.5,164.5C 403.756,164.528 407.422,163.195 410.5,160.5C 405.508,159.544 405.175,157.877 409.5,155.5C 411.5,156 413.5,156.5 415.5,157C 413.959,160.398 414.959,163.398 418.5,166C 417.396,167.131 417.729,167.965 419.5,168.5C 419.833,167.833 420.167,167.167 420.5,166.5C 424.151,169.237 423.317,170.57 418,170.5C 416.833,170.333 415.667,170.167 414.5,170C 415.696,169.346 415.696,168.846 414.5,168.5C 411.17,169.094 407.836,169.76 404.5,170.5C 404.709,171.086 405.043,171.586 405.5,172C 404.167,172.333 402.833,172.667 401.5,173C 408.191,176.824 407.524,178.99 399.5,179.5C 399.461,181.359 400.294,182.692 402,183.5C 404.455,183.184 407.288,182.851 410.5,182.5 Z M 425.5,210.5 C 428.674,210.952 429.007,211.952 426.5,213.5C 424.481,212.867 424.147,211.867 425.5,210.5 Z"/></g>
<g><path style="opacity:1" fill="#28223d" d="M 326.5,155.5 C 324.167,160.167 321.833,164.833 319.5,169.5C 319.345,165.612 320.345,162.112 322.5,159C 321.736,156.931 321.236,154.764 321,152.5C 317.54,155.105 313.707,157.105 309.5,158.5C 308.914,158.291 308.414,157.957 308,157.5C 307.691,158.766 307.191,159.933 306.5,161C 304.973,162.368 303.473,162.868 302,162.5C 301.742,168.369 301.576,174.035 301.5,179.5C 293.865,173.507 293.532,167.007 300.5,160C 306.267,157.462 311.267,153.962 315.5,149.5C 322.166,146 325.832,148 326.5,155.5 Z"/></g>
<g><path style="opacity:0.757" fill="#171e32" d="M 215.5,159.5 C 219.982,160.663 223.816,162.996 227,166.5C 227.443,172.04 224.943,173.873 219.5,172C 217.241,170.285 215.074,168.452 213,166.5C 212.162,163.519 212.995,161.186 215.5,159.5 Z"/></g>
<g><path style="opacity:1" fill="#b4e2f1" d="M 85.5,144.5 C 87.8706,147.206 90.5372,149.539 93.5,151.5C 93.1193,152.931 92.1193,153.764 90.5,154C 91.731,155.183 91.731,156.349 90.5,157.5C 89.5745,156.359 88.7412,156.359 88,157.5C 87.6824,155.939 86.8491,154.772 85.5,154C 88,153.167 88.1667,152 86,150.5C 83.0818,152.734 81.5818,155.734 81.5,159.5C 87.3983,161.556 93.3983,161.89 99.5,160.5C 101.208,160.703 102.541,161.536 103.5,163C 103.167,163.333 102.833,163.667 102.5,164C 104.55,165.332 106.55,165.498 108.5,164.5C 108.052,170.555 110.719,172.721 116.5,171C 119.112,167.836 119.112,164.669 116.5,161.5C 120.192,161.695 122.026,163.695 122,167.5C 125.357,165.317 125.191,163.317 121.5,161.5C 118.436,160.879 115.436,160.045 112.5,159C 117.085,157.775 121.752,157.275 126.5,157.5C 126.622,161.838 126.955,162.172 127.5,158.5C 131.449,158.307 131.449,157.807 127.5,157C 133.942,155.821 139.775,155.321 145,155.5C 145.833,155.833 146.667,156.167 147.5,156.5C 146.5,157.333 145.5,158.167 144.5,159C 146.5,159.333 148.5,159.667 150.5,160C 151.337,161.011 151.67,162.178 151.5,163.5C 148.784,165.005 146.117,165.838 143.5,166C 145.449,167.835 147.783,169.001 150.5,169.5C 150.291,170.086 149.957,170.586 149.5,171C 151.037,172.11 151.703,173.61 151.5,175.5C 149.08,175.708 146.747,175.374 144.5,174.5C 144.167,174.833 143.833,175.167 143.5,175.5C 147.459,176.66 151.459,176.827 155.5,176C 154.45,173.497 155.45,171.997 158.5,171.5C 159.318,168.893 159.818,166.226 160,163.5C 161.188,164.563 161.688,165.897 161.5,167.5C 163.833,167.5 166.167,167.5 168.5,167.5C 168.34,169.199 168.506,170.866 169,172.5C 170.286,167.501 171.786,162.668 173.5,158C 172.551,157.383 171.718,157.549 171,158.5C 169.632,157.007 169.465,155.507 170.5,154C 175.749,153.897 180.582,153.731 185,153.5C 185.309,154.766 185.809,155.933 186.5,157C 183.115,161.605 180.115,166.438 177.5,171.5C 177.863,172.183 178.196,172.85 178.5,173.5C 176.155,179.021 173.155,184.188 169.5,189C 151.743,189.027 134.076,189.693 116.5,191C 114.959,192.579 113.792,194.413 113,196.5C 112.182,202.349 112.348,208.015 113.5,213.5C 113.269,216.785 114.603,219.285 117.5,221C 121.7,222.367 126.033,222.867 130.5,222.5C 130.833,256.84 130.5,291.173 129.5,325.5C 109.764,330.903 97.4305,343.57 92.5,363.5C 88.1165,365.352 84.1165,367.685 80.5,370.5C 79.048,366.263 77.048,362.263 74.5,358.5C 81.492,358.024 82.8253,355.191 78.5,350C 74.8484,349.501 71.1817,349.335 67.5,349.5C 65.8883,345.942 64.555,342.275 63.5,338.5C 52.7593,313.909 47.7593,288.076 48.5,261C 48.313,218.066 60.6464,179.233 85.5,144.5 Z M 73.5,209.5 C 74.7847,211.452 76.4514,213.118 78.5,214.5C 76.4733,215.693 74.9733,217.36 74,219.5C 72.8333,217 71,215.167 68.5,214C 71.2865,213.712 72.9532,212.212 73.5,209.5 Z M 92.5,274.5 C 93.7628,279.097 96.7628,282.097 101.5,283.5C 96.7996,284.701 93.9663,287.701 93,292.5C 92.6401,290.392 91.9734,288.392 91,286.5C 88.8154,285.33 86.6488,284.164 84.5,283C 90.128,282.874 92.7946,280.04 92.5,274.5 Z"/></g>
<g><path style="opacity:1" fill="#182b3f" d="M 83.5,162.5 C 89.1764,162.334 94.8431,162.501 100.5,163C 101.576,164.726 101.743,166.559 101,168.5C 95.2496,169.641 89.4163,169.807 83.5,169C 82.232,166.837 82.232,164.67 83.5,162.5 Z"/></g>
<g><path style="opacity:1" fill="#315f83" d="M 116.5,161.5 C 119.112,164.669 119.112,167.836 116.5,171C 110.719,172.721 108.052,170.555 108.5,164.5C 110.545,162.016 113.212,161.016 116.5,161.5 Z"/></g>
<g><path style="opacity:1" fill="#1f3e54" d="M 151.5,163.5 C 156.427,161.595 158.594,163.262 158,168.5C 156.867,170.211 155.367,170.711 153.5,170C 151.771,168.211 151.104,166.044 151.5,163.5 Z"/></g>
<g><path style="opacity:1" fill="#171f36" d="M 233.5,170.5 C 238.888,172.857 243.555,176.191 247.5,180.5C 246.097,184.254 243.43,185.421 239.5,184C 236.061,181.861 232.894,179.361 230,176.5C 229.868,173.766 231.035,171.766 233.5,170.5 Z"/></g>
<g><path style="opacity:1" fill="#ea7d7b" d="M 232.5,147.5 C 235.798,148.343 239.131,148.509 242.5,148C 238.868,149.373 238.701,150.873 242,152.5C 243.505,151.327 245.005,150.161 246.5,149C 248.074,148.301 249.407,148.635 250.5,150C 244.787,153.979 245.453,156.312 252.5,157C 252.167,157.333 251.833,157.667 251.5,158C 252.784,158.684 253.951,158.517 255,157.5C 260.15,163.835 266.65,168.335 274.5,171C 277.054,175.055 280.721,177.221 285.5,177.5C 286.044,179.716 287.044,181.716 288.5,183.5C 279.737,178.587 271.07,173.42 262.5,168C 252.608,160.897 242.608,154.063 232.5,147.5 Z"/></g>
<g><path style="opacity:1" fill="#be4c56" d="M 329.5,146.5 C 331.63,147.964 332.963,149.964 333.5,152.5C 336.243,152.077 337.576,153.244 337.5,156C 336.379,159.937 335.046,163.77 333.5,167.5C 330.833,172.167 328.167,176.833 325.5,181.5C 324.026,182.436 323.026,183.77 322.5,185.5C 318.066,187.237 313.399,187.904 308.5,187.5C 303.356,185.533 298.856,182.533 295,178.5C 289.973,170.936 290.473,163.769 296.5,157C 301.526,154.819 306.526,152.652 311.5,150.5C 312.708,149.766 314.041,149.433 315.5,149.5C 311.267,153.962 306.267,157.462 300.5,160C 293.532,167.007 293.865,173.507 301.5,179.5C 307.763,184.053 313.263,183.053 318,176.5C 318.662,174.187 319.162,171.854 319.5,169.5C 321.833,164.833 324.167,160.167 326.5,155.5C 328.289,152.848 329.289,149.848 329.5,146.5 Z"/></g>
<g><path style="opacity:1" fill="#232b44" d="M 319.5,169.5 C 319.162,171.854 318.662,174.187 318,176.5C 313.263,183.053 307.763,184.053 301.5,179.5C 301.576,174.035 301.742,168.369 302,162.5C 303.473,162.868 304.973,162.368 306.5,161C 307.191,159.933 307.691,158.766 308,157.5C 308.414,157.957 308.914,158.291 309.5,158.5C 313.707,157.105 317.54,155.105 321,152.5C 321.236,154.764 321.736,156.931 322.5,159C 320.345,162.112 319.345,165.612 319.5,169.5 Z"/></g>
<g><path style="opacity:1" fill="#649bbf" d="M 317.5,156.5 C 318.043,156.56 318.376,156.893 318.5,157.5C 315.881,163.24 312.881,168.74 309.5,174C 302.608,174.692 300.775,171.859 304,165.5C 308.949,163.029 313.449,160.029 317.5,156.5 Z"/></g>
<g><path style="opacity:1" fill="#1a2037" d="M 206.5,174.5 C 210.515,175.591 214.015,177.591 217,180.5C 217.486,185.992 214.986,187.825 209.5,186C 205.027,184.226 203.194,181.06 204,176.5C 204.995,175.934 205.828,175.267 206.5,174.5 Z"/></g>
<g><path style="opacity:1" fill="#1d2036" d="M 241.5,95.5 C 247.178,98.3359 252.511,101.669 257.5,105.5C 253.013,103.871 248.846,101.537 245,98.5C 244,98.8333 243,99.1667 242,99.5C 241.333,101.167 241.333,102.833 242,104.5C 250.363,110.429 259.197,115.429 268.5,119.5C 268.421,120.93 268.754,122.264 269.5,123.5C 269.043,124.298 268.376,124.631 267.5,124.5C 267.67,123.178 267.337,122.011 266.5,121C 255.836,115.337 245.503,109.17 235.5,102.5C 227.765,112.956 220.765,123.956 214.5,135.5C 214.97,136.463 215.637,136.463 216.5,135.5C 216.511,137.017 217.177,138.184 218.5,139C 222.807,142.483 227.473,145.317 232.5,147.5C 242.608,154.063 252.608,160.897 262.5,168C 271.07,173.42 279.737,178.587 288.5,183.5C 288.973,184.906 289.973,185.573 291.5,185.5C 292.574,186.885 293.907,188.051 295.5,189C 303.833,189.667 312.167,189.667 320.5,189C 321.305,187.887 321.972,186.721 322.5,185.5C 323.026,183.77 324.026,182.436 325.5,181.5C 324.424,184.871 323.424,188.204 322.5,191.5C 316.305,191.676 310.138,191.343 304,190.5C 301.761,191.091 299.594,191.758 297.5,192.5C 297.719,193.675 297.386,194.675 296.5,195.5C 294.953,194.232 293.953,192.565 293.5,190.5C 290.493,188.9 288.159,189.567 286.5,192.5C 285.203,190.633 283.703,190.3 282,191.5C 272.868,190.706 263.701,190.206 254.5,190C 253.944,189.617 253.611,189.117 253.5,188.5C 261.765,188.552 270.098,188.718 278.5,189C 256.968,175.405 235.635,161.572 214.5,147.5C 214.897,146.475 215.563,146.308 216.5,147C 220.069,149.045 223.402,151.378 226.5,154C 233.767,154.198 234.434,152.031 228.5,147.5C 222.384,144.453 217.051,140.453 212.5,135.5C 215.77,129.721 219.27,124.055 223,118.5C 223.667,117.167 223.667,115.833 223,114.5C 221.636,115.258 220.469,114.758 219.5,113C 222.61,111.018 225.943,109.518 229.5,108.5C 230.128,106.742 231.128,105.242 232.5,104C 231.833,103.667 231.167,103.333 230.5,103C 233.876,102.693 235.21,100.86 234.5,97.5C 236.591,97.3184 238.591,97.6518 240.5,98.5C 243.028,97.5022 243.028,96.6689 240.5,96C 240.728,95.6012 241.062,95.4346 241.5,95.5 Z"/></g>
<g><path style="opacity:1" fill="#b3626e" d="M 291.5,185.5 C 293.423,185.795 295.09,186.628 296.5,188C 300.689,188.812 304.689,188.645 308.5,187.5C 313.399,187.904 318.066,187.237 322.5,185.5C 321.972,186.721 321.305,187.887 320.5,189C 312.167,189.667 303.833,189.667 295.5,189C 293.907,188.051 292.574,186.885 291.5,185.5 Z"/></g>
<g><path style="opacity:1" fill="#effbfd" d="M 287.5,198.5 C 287.5,199.5 287.5,200.5 287.5,201.5C 246.997,201.832 206.663,201.499 166.5,200.5C 166.842,199.662 167.508,199.328 168.5,199.5C 208.094,198.506 247.761,198.173 287.5,198.5 Z"/></g>
<g><path style="opacity:1" fill="#accbdd" d="M 287.5,198.5 C 289.167,198.5 290.833,198.5 292.5,198.5C 293.609,199.29 294.942,199.79 296.5,200C 304.344,200.171 312.011,200.671 319.5,201.5C 266.002,202.665 212.335,202.832 158.5,202C 159.056,201.617 159.389,201.117 159.5,200.5C 161.833,200.5 164.167,200.5 166.5,200.5C 206.663,201.499 246.997,201.832 287.5,201.5C 287.5,200.5 287.5,199.5 287.5,198.5 Z"/></g>
<g><path style="opacity:1" fill="#6ca1c7" d="M 122.5,200.5 C 134.686,201.761 147.02,201.761 159.5,200.5C 159.389,201.117 159.056,201.617 158.5,202C 212.335,202.832 266.002,202.665 319.5,201.5C 337.861,201.78 356.194,201.447 374.5,200.5C 376.179,200.285 377.179,200.952 377.5,202.5C 375.167,202.5 372.833,202.5 370.5,202.5C 370.703,204.39 370.037,205.89 368.5,207C 286.167,207.5 203.834,207.667 121.5,207.5C 121.5,205.833 121.5,204.167 121.5,202.5C 121.328,201.508 121.662,200.842 122.5,200.5 Z"/></g>
<g><path style="opacity:1" fill="#2f5e91" d="M 377.5,202.5 C 377.813,205.247 377.48,207.914 376.5,210.5C 370.755,211.78 364.922,212.447 359,212.5C 326.268,211.893 293.602,211.226 261,210.5C 249.817,211.639 239.15,211.639 229,210.5C 224.667,211.167 220.333,211.833 216,212.5C 208.123,211.017 200.123,210.351 192,210.5C 172.006,211.447 152.172,212.447 132.5,213.5C 129.167,213.5 125.833,213.5 122.5,213.5C 122.167,211.5 121.833,209.5 121.5,207.5C 203.834,207.667 286.167,207.5 368.5,207C 370.037,205.89 370.703,204.39 370.5,202.5C 372.833,202.5 375.167,202.5 377.5,202.5 Z"/></g>
<g><path style="opacity:1" fill="#345f87" d="M 375.5,198.5 C 376.5,198.5 377.5,198.5 378.5,198.5C 378.821,203.695 378.487,208.695 377.5,213.5C 295.833,213.5 214.167,213.5 132.5,213.5C 152.172,212.447 172.006,211.447 192,210.5C 200.123,210.351 208.123,211.017 216,212.5C 220.333,211.833 224.667,211.167 229,210.5C 239.15,211.639 249.817,211.639 261,210.5C 293.602,211.226 326.268,211.893 359,212.5C 364.922,212.447 370.755,211.78 376.5,210.5C 377.48,207.914 377.813,205.247 377.5,202.5C 377.179,200.952 376.179,200.285 374.5,200.5C 374.833,199.833 375.167,199.167 375.5,198.5 Z"/></g>
<g><path style="opacity:1" fill="#193557" d="M 122.5,213.5 C 125.833,213.5 129.167,213.5 132.5,213.5C 214.167,213.5 295.833,213.5 377.5,213.5C 353.006,214.498 328.339,214.831 303.5,214.5C 255.5,214.5 207.5,214.5 159.5,214.5C 147.025,213.96 134.692,214.626 122.5,216.5C 122.5,215.5 122.5,214.5 122.5,213.5 Z"/></g>
<g><path style="opacity:1" fill="#1c2a3d" d="M 424.5,199.5 C 428.578,199.26 430.744,201.26 431,205.5C 434.067,207.101 436.567,209.268 438.5,212C 436.98,214.772 434.647,216.606 431.5,217.5C 428.803,224.979 425.636,225.312 422,218.5C 418.605,217.368 416.105,215.201 414.5,212C 416.433,209.268 418.933,207.101 422,205.5C 422.573,203.359 423.406,201.359 424.5,199.5 Z M 425.5,210.5 C 424.147,211.867 424.481,212.867 426.5,213.5C 429.007,211.952 428.674,210.952 425.5,210.5 Z"/></g>
<g><path style="opacity:1" fill="#19283d" d="M 71.5,197.5 C 73.1992,197.34 74.8659,197.506 76.5,198C 78.0367,200.28 79.2033,202.78 80,205.5C 82.0305,207.737 84.5305,209.237 87.5,210C 90.9318,212.367 91.2652,215.034 88.5,218C 81.9201,219.079 78.2534,222.913 77.5,229.5C 74.959,232.1 72.459,232.1 70,229.5C 68.975,223.472 65.475,219.639 59.5,218C 57.3517,215.925 57.0183,213.592 58.5,211C 61.9121,209.545 65.0788,207.712 68,205.5C 68.6958,202.562 69.8625,199.896 71.5,197.5 Z M 73.5,209.5 C 72.9532,212.212 71.2865,213.712 68.5,214C 71,215.167 72.8333,217 74,219.5C 74.9733,217.36 76.4733,215.693 78.5,214.5C 76.4514,213.118 74.7847,211.452 73.5,209.5 Z"/></g>
<g><path style="opacity:1" fill="#132443" d="M 159.5,214.5 C 207.5,214.5 255.5,214.5 303.5,214.5C 306.485,215.182 309.485,216.182 312.5,217.5C 317.342,215.714 322.342,215.548 327.5,217C 324.028,216.943 321.028,217.943 318.5,220C 329.473,221.118 340.473,221.618 351.5,221.5C 351.5,220.167 351.5,218.833 351.5,217.5C 344.825,217.666 338.158,217.5 331.5,217C 334.984,215.868 338.651,215.368 342.5,215.5C 351.215,216.512 359.882,217.845 368.5,219.5C 368.291,220.086 367.957,220.586 367.5,221C 364.635,221.183 361.969,221.683 359.5,222.5C 292.5,222.5 225.5,222.5 158.5,222.5C 153.5,222.5 148.5,222.5 143.5,222.5C 173.07,220.327 202.736,218.994 232.5,218.5C 237.252,220.354 242.252,221.354 247.5,221.5C 254.39,220.467 260.557,219.134 266,217.5C 268.671,217.274 271.004,217.941 273,219.5C 274.667,219.167 276.333,218.833 278,218.5C 281.824,219.016 285.49,220.016 289,221.5C 293.133,219.899 297.3,219.566 301.5,220.5C 302.5,220.167 303.167,219.5 303.5,218.5C 292.545,216.867 281.545,215.867 270.5,215.5C 232.88,215.223 195.88,215.89 159.5,217.5C 159.5,216.5 159.5,215.5 159.5,214.5 Z"/></g>
<g><path style="opacity:1" fill="#285686" d="M 143.5,222.5 C 148.5,222.5 153.5,222.5 158.5,222.5C 221.664,223.499 284.998,223.832 348.5,223.5C 348.335,227.182 348.501,230.848 349,234.5C 349.451,232.071 350.285,231.904 351.5,234C 350.874,234.75 350.374,235.584 350,236.5C 349.833,239.667 349.667,242.833 349.5,246C 350.638,258.691 350.638,271.358 349.5,284C 349.898,286.774 351.231,287.607 353.5,286.5C 353.445,271.953 353.445,257.286 353.5,242.5C 355.484,242.383 357.15,243.05 358.5,244.5C 357.256,247.638 356.589,250.972 356.5,254.5C 356.66,261.434 357.327,268.267 358.5,275C 357.7,279.08 357.2,283.247 357,287.5C 354.281,288.444 351.448,288.777 348.5,288.5C 348.5,271.5 348.5,254.5 348.5,237.5C 342.833,237.5 337.167,237.5 331.5,237.5C 269.167,237.5 206.833,237.5 144.5,237.5C 142.589,236.925 140.922,235.925 139.5,234.5C 139.5,234.167 139.5,233.833 139.5,233.5C 141.371,233.859 142.871,234.859 144,236.5C 144.773,231.748 144.607,227.081 143.5,222.5 Z"/></g>
<g><path style="opacity:1" fill="#447bab" d="M 143.5,222.5 C 144.607,227.081 144.773,231.748 144,236.5C 142.871,234.859 141.371,233.859 139.5,233.5C 139.5,229.833 139.5,226.167 139.5,222.5C 140.833,222.5 142.167,222.5 143.5,222.5 Z"/></g>
<g><path style="opacity:1" fill="#6da1c6" d="M 144.5,237.5 C 206.833,237.5 269.167,237.5 331.5,237.5C 332.315,238.837 333.482,239.837 335,240.5C 335.667,243.167 335.667,245.833 335,248.5C 332.8,249.836 330.967,251.502 329.5,253.5C 331.847,256.34 334.68,258.673 338,260.5C 338.5,270.161 338.666,279.828 338.5,289.5C 338.5,289.833 338.5,290.167 338.5,290.5C 335.43,290.368 332.43,290.701 329.5,291.5C 329.666,281.828 329.5,272.161 329,262.5C 321.52,251.877 314.187,251.877 307,262.5C 306.5,275.162 306.333,287.829 306.5,300.5C 306.5,301.167 306.167,301.5 305.5,301.5C 303.983,301.511 302.816,302.177 302,303.5C 301.949,289.099 301.282,274.765 300,260.5C 294.836,254.252 289.002,253.252 282.5,257.5C 280.827,258.343 279.66,259.676 279,261.5C 278.5,284.831 278.333,308.164 278.5,331.5C 277.698,334.574 276.698,337.574 275.5,340.5C 271.141,356.454 272.141,372.121 278.5,387.5C 277.965,391.819 277.465,396.152 277,400.5C 276.25,401.126 275.416,401.626 274.5,402C 258.837,402.5 243.17,402.667 227.5,402.5C 227.5,398.833 227.5,395.167 227.5,391.5C 229.735,391.795 231.735,391.461 233.5,390.5C 237.961,390.21 240.795,387.877 242,383.5C 242.667,343.167 242.667,302.833 242,262.5C 240.795,258.123 237.961,255.79 233.5,255.5C 230.673,254.632 227.673,254.632 224.5,255.5C 224.832,297.003 224.499,338.337 223.5,379.5C 220.89,374.891 217.89,370.558 214.5,366.5C 214.667,331.498 214.5,296.498 214,261.5C 209.907,255.079 204.407,253.413 197.5,256.5C 195.378,258.451 193.878,260.785 193,263.5C 192.5,295.498 192.333,327.498 192.5,359.5C 190.833,359.5 189.167,359.5 187.5,359.5C 187.667,327.165 187.5,294.832 187,262.5C 183.787,255.518 178.62,253.685 171.5,257C 169.859,258.129 168.859,259.629 168.5,261.5C 167.833,285.5 167.167,309.5 166.5,333.5C 159.726,328.914 152.393,325.914 144.5,324.5C 144.5,295.5 144.5,266.5 144.5,237.5 Z"/></g>
<g><path style="opacity:1" fill="#1c3548" d="M 101.5,237.5 C 106.493,237.997 107.493,240.164 104.5,244C 99.3823,243.824 98.3823,241.658 101.5,237.5 Z"/></g>
<g><path style="opacity:1" fill="#3775ac" d="M 331.5,237.5 C 337.167,237.5 342.833,237.5 348.5,237.5C 348.5,254.5 348.5,271.5 348.5,288.5C 345.375,289.479 342.042,289.813 338.5,289.5C 338.666,279.828 338.5,270.161 338,260.5C 334.68,258.673 331.847,256.34 329.5,253.5C 330.967,251.502 332.8,249.836 335,248.5C 335.667,245.833 335.667,243.167 335,240.5C 333.482,239.837 332.315,238.837 331.5,237.5 Z"/></g>
<g><path style="opacity:1" fill="#1f3a50" d="M 90.5,238.5 C 94.4336,236.933 96.267,238.266 96,242.5C 93.1359,245.326 90.9692,244.826 89.5,241C 89.7432,240.098 90.0766,239.265 90.5,238.5 Z"/></g>
<g><path style="opacity:1" fill="#234c74" d="M 158.5,222.5 C 225.5,222.5 292.5,222.5 359.5,222.5C 360.5,222.5 361.5,222.5 362.5,222.5C 362.5,245.5 362.5,268.5 362.5,291.5C 354.542,290.597 346.542,290.264 338.5,290.5C 338.5,290.167 338.5,289.833 338.5,289.5C 342.042,289.813 345.375,289.479 348.5,288.5C 351.448,288.777 354.281,288.444 357,287.5C 357.2,283.247 357.7,279.08 358.5,275C 357.327,268.267 356.66,261.434 356.5,254.5C 356.589,250.972 357.256,247.638 358.5,244.5C 357.15,243.05 355.484,242.383 353.5,242.5C 353.445,257.286 353.445,271.953 353.5,286.5C 351.231,287.607 349.898,286.774 349.5,284C 350.638,271.358 350.638,258.691 349.5,246C 349.667,242.833 349.833,239.667 350,236.5C 350.374,235.584 350.874,234.75 351.5,234C 350.285,231.904 349.451,232.071 349,234.5C 348.501,230.848 348.335,227.182 348.5,223.5C 284.998,223.832 221.664,223.499 158.5,222.5 Z"/></g>
<g><path style="opacity:1" fill="#22486e" d="M 192.5,359.5 C 189.713,360.477 186.713,360.81 183.5,360.5C 181.882,349.549 176.549,340.882 167.5,334.5C 168.498,310.339 168.831,286.006 168.5,261.5C 168.859,259.629 169.859,258.129 171.5,257C 178.62,253.685 183.787,255.518 187,262.5C 187.5,294.832 187.667,327.165 187.5,359.5C 189.167,359.5 190.833,359.5 192.5,359.5 Z"/></g>
<g><path style="opacity:1" fill="#1c3a5c" d="M 305.5,301.5 C 300.672,303.97 296.339,307.303 292.5,311.5C 293.622,295.198 293.789,278.865 293,262.5C 289.923,259.203 286.423,257.536 282.5,257.5C 289.002,253.252 294.836,254.252 300,260.5C 301.282,274.765 301.949,289.099 302,303.5C 302.816,302.177 303.983,301.511 305.5,301.5 Z"/></g>
<g><path style="opacity:1" fill="#28516a" d="M 61.5,261.5 C 67.1581,260.679 68.8248,262.846 66.5,268C 60.741,269.139 59.0744,266.972 61.5,261.5 Z"/></g>
<g><path style="opacity:1" fill="#19273e" d="M 96.5,304.5 C 94.4727,304.662 92.4727,304.495 90.5,304C 88.0989,300.477 86.2656,296.644 85,292.5C 80.4156,291.64 76.4156,289.64 73,286.5C 72.0961,280.563 74.5961,276.896 80.5,275.5C 82.3904,275.703 83.8904,275.037 85,273.5C 86.3333,270.167 87.6667,266.833 89,263.5C 92.2935,260.689 95.2935,261.022 98,264.5C 98.9284,268.298 100.428,271.798 102.5,275C 106.805,275.903 110.639,277.737 114,280.5C 114.706,282.971 114.373,285.305 113,287.5C 108.965,289.507 104.965,291.507 101,293.5C 99.5902,297.236 98.0902,300.902 96.5,304.5 Z M 92.5,274.5 C 92.7946,280.04 90.128,282.874 84.5,283C 86.6488,284.164 88.8154,285.33 91,286.5C 91.9734,288.392 92.6401,290.392 93,292.5C 93.9663,287.701 96.7996,284.701 101.5,283.5C 96.7628,282.097 93.7628,279.097 92.5,274.5 Z"/></g>
<g><path style="opacity:1" fill="#22466b" d="M 282.5,257.5 C 286.423,257.536 289.923,259.203 293,262.5C 293.789,278.865 293.622,295.198 292.5,311.5C 286.603,317.382 281.936,324.048 278.5,331.5C 278.333,308.164 278.5,284.831 279,261.5C 279.66,259.676 280.827,258.343 282.5,257.5 Z"/></g>
<g><path style="opacity:0.972" fill="#1a283e" d="M 416.5,274.5 C 415.206,275.29 414.039,276.29 413,277.5C 412.261,281.062 410.761,284.228 408.5,287C 406.833,287.667 405.167,287.667 403.5,287C 401.448,283.728 399.782,280.228 398.5,276.5C 393.958,274.821 389.791,272.488 386,269.5C 385.506,267.866 385.34,266.199 385.5,264.5C 388.463,260.586 392.463,258.419 397.5,258C 403.348,240.07 409.014,240.07 414.5,258C 417.363,259.399 420.363,260.399 423.5,261C 424.333,261.833 425.167,262.667 426,263.5C 426.739,270.275 423.573,273.942 416.5,274.5 Z M 405.5,257.5 C 406.539,259.901 407.873,262.235 409.5,264.5C 411.115,265.154 412.782,265.654 414.5,266C 410.32,267.002 407.486,269.502 406,273.5C 404.73,269.23 401.896,266.73 397.5,266C 403.118,265.883 405.785,263.05 405.5,257.5 Z"/></g>
<g><path style="opacity:1" fill="#1d3d5f" d="M 329.5,291.5 C 321.285,293.135 313.619,296.135 306.5,300.5C 306.333,287.829 306.5,275.162 307,262.5C 314.187,251.877 321.52,251.877 329,262.5C 329.5,272.161 329.666,281.828 329.5,291.5 Z"/></g>
<g><path style="opacity:1" fill="#b4e2f2" d="M 380.5,109.5 C 381.167,109.5 381.833,109.5 382.5,109.5C 388.605,115.103 394.605,120.936 400.5,127C 406.259,128.096 409.093,131.596 409,137.5C 422.018,153.867 432.185,171.867 439.5,191.5C 437.916,190.027 436.416,188.36 435,186.5C 433.739,186.759 432.739,187.426 432,188.5C 431.83,186.285 431.163,184.285 430,182.5C 428.887,183.76 428.72,184.927 429.5,186C 428.5,186.333 427.5,186.667 426.5,187C 427.654,187.914 427.487,188.747 426,189.5C 425.333,188.167 424.667,188.167 424,189.5C 423.607,187.801 424.107,186.301 425.5,185C 424.646,184.426 423.646,183.759 422.5,183C 423.148,181.56 423.481,180.06 423.5,178.5C 425.06,178.481 426.56,178.148 428,177.5C 430.799,178.237 430.966,179.07 428.5,180C 430.376,182.068 431.709,181.734 432.5,179C 431.47,176.44 430.303,173.94 429,171.5C 428.5,172.667 427.667,173.5 426.5,174C 426.957,174.414 427.291,174.914 427.5,175.5C 425.922,176.298 424.256,176.798 422.5,177C 421.773,178.399 421.273,179.899 421,181.5C 420.329,182.252 419.496,182.586 418.5,182.5C 421.838,177.557 420.505,174.557 414.5,173.5C 412.626,173.39 411.126,174.056 410,175.5C 409.297,177.929 409.463,180.262 410.5,182.5C 407.288,182.851 404.455,183.184 402,183.5C 400.294,182.692 399.461,181.359 399.5,179.5C 407.524,178.99 408.191,176.824 401.5,173C 402.833,172.667 404.167,172.333 405.5,172C 405.043,171.586 404.709,171.086 404.5,170.5C 407.836,169.76 411.17,169.094 414.5,168.5C 415.696,168.846 415.696,169.346 414.5,170C 415.667,170.167 416.833,170.333 418,170.5C 423.317,170.57 424.151,169.237 420.5,166.5C 420.167,167.167 419.833,167.833 419.5,168.5C 417.729,167.965 417.396,167.131 418.5,166C 414.959,163.398 413.959,160.398 415.5,157C 413.5,156.5 411.5,156 409.5,155.5C 405.175,157.877 405.508,159.544 410.5,160.5C 407.422,163.195 403.756,164.528 399.5,164.5C 399.36,166.124 400.027,167.29 401.5,168C 400.333,168.5 399.5,169.333 399,170.5C 398.667,174.167 398.333,177.833 398,181.5C 397.667,180.5 397.333,179.5 397,178.5C 394.101,179.874 393.934,181.374 396.5,183C 393.292,183.887 393.292,185.553 396.5,188C 408.169,190.476 408.169,191.642 396.5,191.5C 395.934,194.583 395.934,197.583 396.5,200.5C 395.917,202.002 395.084,203.335 394,204.5C 393.667,200.833 393.333,197.167 393,193.5C 391.867,191.789 390.367,191.289 388.5,192C 388.279,200.474 388.779,208.974 390,217.5C 389.667,217.167 389.333,216.833 389,216.5C 387.98,217.891 387.147,219.391 386.5,221C 382.607,222.195 379.107,224.028 376,226.5C 375.71,230.863 375.21,235.196 374.5,239.5C 375.705,241.121 375.539,242.454 374,243.5C 373.333,249.5 373.333,255.5 374,261.5C 377.528,264.211 380.362,267.544 382.5,271.5C 383.287,270.758 383.953,269.925 384.5,269C 382.957,266.955 383.29,265.455 385.5,264.5C 385.34,266.199 385.506,267.866 386,269.5C 389.791,272.488 393.958,274.821 398.5,276.5C 399.782,280.228 401.448,283.728 403.5,287C 405.167,287.667 406.833,287.667 408.5,287C 410.761,284.228 412.261,281.062 413,277.5C 414.039,276.29 415.206,275.29 416.5,274.5C 415.022,277.561 415.855,279.894 419,281.5C 425.143,278.521 430.977,279.021 436.5,283C 436.167,283.333 435.833,283.667 435.5,284C 437.406,285.856 438.24,288.023 438,290.5C 437.632,289.09 436.799,288.09 435.5,287.5C 434.591,289.375 433.257,290.708 431.5,291.5C 432.6,292.558 433.934,293.392 435.5,294C 433.965,294.496 432.465,294.33 431,293.5C 429.681,294.319 428.515,295.319 427.5,296.5C 428.274,297.711 429.107,297.711 430,296.5C 431.009,298.025 431.509,299.692 431.5,301.5C 429.516,301.617 427.85,300.95 426.5,299.5C 425.28,299.887 424.613,300.72 424.5,302C 426.006,303.838 427.506,305.671 429,307.5C 429.667,306.167 430.333,304.833 431,303.5C 431.359,306.544 432.026,306.878 433,304.5C 433.196,308.786 431.696,312.452 428.5,315.5C 427.555,313.483 426.055,313.15 424,314.5C 421.123,313.733 418.29,313.233 415.5,313C 416.833,313.667 416.833,314.333 415.5,315C 413.598,315.199 412.098,316.033 411,317.5C 409.957,320.757 409.457,324.09 409.5,327.5C 402.408,312.41 391.074,301.743 375.5,295.5C 374.292,294.766 372.959,294.433 371.5,294.5C 371.5,270.5 371.5,246.5 371.5,222.5C 377.801,223.686 382.634,221.686 386,216.5C 386.667,209.5 386.667,202.5 386,195.5C 385.167,192.667 383.333,190.833 380.5,190C 364.156,189.833 347.823,189.333 331.5,188.5C 334.696,182.753 338.362,177.419 342.5,172.5C 343.239,172.369 343.906,172.536 344.5,173C 343.455,174.616 342.455,176.283 341.5,178C 342.167,179 342.833,180 343.5,181C 341.632,183.789 338.966,185.122 335.5,185C 334.167,186 334.167,187 335.5,188C 354.466,188.928 373.132,188.428 391.5,186.5C 393.103,180.392 391.436,178.559 386.5,181C 384.868,184.925 381.868,186.425 377.5,185.5C 375.036,185.41 372.87,184.743 371,183.5C 362.535,184.031 353.368,184.198 343.5,184C 344.308,183.692 344.975,183.192 345.5,182.5C 353.662,181.316 361.828,181.316 370,182.5C 373.72,182.706 376.887,181.539 379.5,179C 378.682,177.823 377.682,176.49 376.5,175C 376.808,173.541 377.475,172.374 378.5,171.5C 379.666,168.438 381.166,165.438 383,162.5C 386.158,164.833 389.658,166.5 393.5,167.5C 393.192,165.076 393.526,162.743 394.5,160.5C 396.071,161.309 397.738,161.643 399.5,161.5C 399.5,160.167 399.5,158.833 399.5,157.5C 394.633,157.356 390.133,157.69 386,158.5C 384.314,155.978 382.981,156.311 382,159.5C 380.887,158.289 379.72,158.289 378.5,159.5C 377.328,159.081 376.328,158.415 375.5,157.5C 373.069,153.532 373.069,149.699 375.5,146C 378.833,145 382.167,144 385.5,143C 384.833,142.667 384.167,142.333 383.5,142C 388.988,141.934 394.321,141.101 399.5,139.5C 398.562,138.447 397.395,137.78 396,137.5C 392.523,137.605 389.023,137.938 385.5,138.5C 383.825,138.132 382.825,137.132 382.5,135.5C 388.176,135.666 393.843,135.499 399.5,135C 400.861,132.416 400.195,130.416 397.5,129C 392.177,128.501 386.844,128.334 381.5,128.5C 383.265,127.539 385.265,127.205 387.5,127.5C 387.5,126.5 387.5,125.5 387.5,124.5C 385.833,124.5 384.167,124.5 382.5,124.5C 382.351,123.448 382.517,122.448 383,121.5C 384.771,120.696 386.271,119.529 387.5,118C 385.254,116.743 383.921,114.91 383.5,112.5C 381.143,112.663 378.81,112.497 376.5,112C 378.111,111.71 379.444,110.877 380.5,109.5 Z"/></g>
<g><path style="opacity:1" fill="#315f85" d="M 418.5,182.5 C 415.833,183.833 413.167,183.833 410.5,182.5C 409.463,180.262 409.297,177.929 410,175.5C 411.126,174.056 412.626,173.39 414.5,173.5C 420.505,174.557 421.838,177.557 418.5,182.5 Z"/></g>
<g><path style="opacity:1" fill="#1f364e" d="M 378.5,171.5 C 381.281,166.955 384.447,166.622 388,170.5C 388.993,176.502 386.493,178.668 380.5,177C 379.139,175.416 378.472,173.582 378.5,171.5 Z"/></g>
<g><path style="opacity:1" fill="#1e3247" d="M 377.5,147.5 C 386.506,147.334 395.506,147.5 404.5,148C 406.648,150.075 406.982,152.408 405.5,155C 395.833,155.667 386.167,155.667 376.5,155C 375.083,152.257 375.416,149.757 377.5,147.5 Z"/></g>
<g><path style="opacity:1" fill="#b4e4f3" d="M 90.5,238.5 C 88.8333,238.5 87.1667,238.5 85.5,238.5C 85.1485,241.073 85.6485,243.406 87,245.5C 87.3333,245.167 87.6667,244.833 88,244.5C 90.8017,245.33 93.635,246.163 96.5,247C 98.1742,249.174 100.174,251.007 102.5,252.5C 104.431,248.623 106.931,247.956 110,250.5C 110.317,248.699 110.984,248.366 112,249.5C 112.492,248.451 112.326,247.451 111.5,246.5C 113.347,241.351 114.68,241.351 115.5,246.5C 114.585,250.144 114.419,253.81 115,257.5C 115.414,257.043 115.914,256.709 116.5,256.5C 117.167,250.833 117.833,245.167 118.5,239.5C 119.086,239.709 119.586,240.043 120,240.5C 126.212,236.564 129.212,238.231 129,245.5C 129.667,271.167 129.667,296.833 129,322.5C 128.308,323.025 127.808,323.692 127.5,324.5C 124.167,325.5 120.833,326.5 117.5,327.5C 115.717,330.207 113.383,330.873 110.5,329.5C 108.247,330.253 106.413,331.586 105,333.5C 104.667,333.167 104.333,332.833 104,332.5C 103.814,334.9 103.314,337.234 102.5,339.5C 101.833,339.833 101.167,340.167 100.5,340.5C 100.874,339.229 100.208,338.062 98.5,337C 100.932,335.913 100.598,335.413 97.5,335.5C 97.5,332.5 97.5,329.5 97.5,326.5C 93.4399,325.848 91.4399,327.515 91.5,331.5C 82.1169,330.253 78.7836,334.253 81.5,343.5C 83.7505,343.181 85.7505,343.681 87.5,345C 85.6674,347.107 84.5007,349.607 84,352.5C 82.4412,350.783 81.6079,348.783 81.5,346.5C 78.1589,347.005 74.8255,347.172 71.5,347C 69.1786,343.757 66.512,340.923 63.5,338.5C 64.6298,334.553 65.6298,334.719 66.5,339C 68.7739,339.463 69.9405,338.63 70,336.5C 68.7453,335.789 67.5786,334.956 66.5,334C 68.8877,333.959 71.221,333.126 73.5,331.5C 73.8333,332.167 74.1667,332.833 74.5,333.5C 77.7955,333.013 80.7955,331.846 83.5,330C 82.944,329.617 82.6107,329.117 82.5,328.5C 83.7562,328.539 84.7562,328.039 85.5,327C 84.6534,322.895 83.9868,318.728 83.5,314.5C 86.2385,315.035 88.0718,314.035 89,311.5C 89.4244,313.615 90.5911,314.448 92.5,314C 92.9662,312.701 92.9662,311.201 92.5,309.5C 95.4701,309.254 96.8034,307.588 96.5,304.5C 98.0902,300.902 99.5902,297.236 101,293.5C 104.965,291.507 108.965,289.507 113,287.5C 114.373,285.305 114.706,282.971 114,280.5C 110.639,277.737 106.805,275.903 102.5,275C 100.428,271.798 98.9284,268.298 98,264.5C 95.2935,261.022 92.2935,260.689 89,263.5C 87.6667,266.833 86.3333,270.167 85,273.5C 83.8904,275.037 82.3904,275.703 80.5,275.5C 77.5182,275.173 74.6849,275.173 72,275.5C 71.3162,274.216 71.4829,273.049 72.5,272C 71.5,271.667 70.5,271.333 69.5,271C 70.1667,269.333 70.8333,267.667 71.5,266C 68.6537,265.121 67.987,263.454 69.5,261C 67.4117,259.97 65.245,259.137 63,258.5C 60.632,259.717 58.132,260.551 55.5,261C 54.8839,263.179 53.7172,265.012 52,266.5C 48.0788,255.062 48.9121,244.062 54.5,233.5C 52.5224,232.197 52.5224,230.531 54.5,228.5C 55.7362,229.246 57.0695,229.579 58.5,229.5C 58.2962,232.518 57.9629,235.518 57.5,238.5C 56.5,238.5 55.5,238.5 54.5,238.5C 54.5228,240.6 53.8561,242.433 52.5,244C 54.0527,247.283 55.7194,247.283 57.5,244C 59.5675,243.313 61.5675,243.48 63.5,244.5C 64.9185,243.995 65.5852,242.995 65.5,241.5C 68.3828,237.229 67.2161,234.229 62,232.5C 60.5553,230.388 60.7219,228.222 62.5,226C 61.6243,224.415 60.2909,223.415 58.5,223C 61.6551,220.99 64.4884,221.49 67,224.5C 67.696,227.478 68.196,230.478 68.5,233.5C 71.2776,233.022 73.2776,234.022 74.5,236.5C 75.5505,235.115 76.8839,234.115 78.5,233.5C 81.9804,236.449 84.3138,235.782 85.5,231.5C 90.1923,231.72 91.1923,233.553 88.5,237C 89.4158,237.278 90.0825,237.778 90.5,238.5 Z"/></g>
<g><path style="opacity:1" fill="#2b5473" d="M 65.5,241.5 C 62.4582,243.215 60.1249,242.548 58.5,239.5C 59.7222,236.911 61.7222,236.077 64.5,237C 65.3802,238.356 65.7135,239.856 65.5,241.5 Z"/></g>
<g><path style="opacity:1" fill="#1d395b" d="M 214.5,366.5 C 211.996,365.416 209.663,364.083 207.5,362.5C 208.222,362.082 208.722,361.416 209,360.5C 209.667,330.833 209.667,301.167 209,271.5C 207.427,266.451 203.927,264.451 198.5,265.5C 197.522,297.135 197.189,328.802 197.5,360.5C 195.883,359.962 194.216,359.629 192.5,359.5C 192.333,327.498 192.5,295.498 193,263.5C 193.878,260.785 195.378,258.451 197.5,256.5C 204.407,253.413 209.907,255.079 214,261.5C 214.5,296.498 214.667,331.498 214.5,366.5 Z"/></g>
<g><path style="opacity:1" fill="#2e5b7f" d="M 431.5,291.5 C 425.724,293.549 422.89,291.549 423,285.5C 425.823,280.605 429.157,280.271 433,284.5C 433.609,287.065 433.109,289.399 431.5,291.5 Z"/></g>
<g><path style="opacity:1" fill="#3f6c92" d="M 168.5,261.5 C 168.831,286.006 168.498,310.339 167.5,334.5C 166.833,334.5 166.5,334.167 166.5,333.5C 167.167,309.5 167.833,285.5 168.5,261.5 Z"/></g>
<g><path style="opacity:1" fill="#1a385a" d="M 260.5,390.5 C 258.671,348.178 257.837,305.512 258,262.5C 256.833,260.667 255.333,259.167 253.5,258C 254.381,257.292 255.047,256.458 255.5,255.5C 261.421,254.091 265.921,256.091 269,261.5C 269.667,302.5 269.667,343.5 269,384.5C 267.395,388.276 264.562,390.276 260.5,390.5 Z"/></g>
<g><path style="opacity:1" fill="#427593" d="M 415.5,301.5 C 421.362,301.662 422.695,304.162 419.5,309C 413.403,309.147 412.07,306.647 415.5,301.5 Z"/></g>
<g><path style="opacity:1" fill="#234156" d="M 93.5,315.5 C 97.9764,315.8 99.3097,317.967 97.5,322C 91.3389,322.878 90.0055,320.711 93.5,315.5 Z"/></g>
<g><path style="opacity:1" fill="#305b80" d="M 82.5,328.5 C 75.362,332.576 72.1953,330.576 73,322.5C 76.3333,318.5 79.6667,318.5 83,322.5C 83.6776,324.598 83.5109,326.598 82.5,328.5 Z"/></g>
<g><path style="opacity:1" fill="#18253d" d="M 121.5,202.5 C 121.5,204.167 121.5,205.833 121.5,207.5C 121.833,209.5 122.167,211.5 122.5,213.5C 122.5,214.5 122.5,215.5 122.5,216.5C 134.692,214.626 147.025,213.96 159.5,214.5C 159.5,215.5 159.5,216.5 159.5,217.5C 195.88,215.89 232.88,215.223 270.5,215.5C 281.545,215.867 292.545,216.867 303.5,218.5C 303.167,219.5 302.5,220.167 301.5,220.5C 297.3,219.566 293.133,219.899 289,221.5C 285.49,220.016 281.824,219.016 278,218.5C 276.333,218.833 274.667,219.167 273,219.5C 271.004,217.941 268.671,217.274 266,217.5C 260.557,219.134 254.39,220.467 247.5,221.5C 242.252,221.354 237.252,220.354 232.5,218.5C 202.736,218.994 173.07,220.327 143.5,222.5C 142.167,222.5 140.833,222.5 139.5,222.5C 139.5,226.167 139.5,229.833 139.5,233.5C 139.5,233.833 139.5,234.167 139.5,234.5C 139.5,264.5 139.5,294.5 139.5,324.5C 141.167,324.5 142.833,324.5 144.5,324.5C 152.393,325.914 159.726,328.914 166.5,333.5C 166.5,334.167 166.833,334.5 167.5,334.5C 176.549,340.882 181.882,349.549 183.5,360.5C 186.713,360.81 189.713,360.477 192.5,359.5C 194.216,359.629 195.883,359.962 197.5,360.5C 200.903,360.851 204.237,361.518 207.5,362.5C 209.663,364.083 211.996,365.416 214.5,366.5C 217.89,370.558 220.89,374.891 223.5,379.5C 225.707,383.189 227.04,387.189 227.5,391.5C 227.5,395.167 227.5,398.833 227.5,402.5C 225.764,407.378 224.43,412.378 223.5,417.5C 250.167,417.5 276.833,417.5 303.5,417.5C 276.901,419.997 250.234,420.83 223.5,420C 225.081,420.707 226.581,421.54 228,422.5C 252.94,421.258 278.106,421.258 303.5,422.5C 304.025,423.192 304.692,423.692 305.5,424C 304.584,424.278 303.918,424.778 303.5,425.5C 274.165,425.667 244.831,425.5 215.5,425C 216.5,424.667 217.5,424.333 218.5,424C 216,423.167 213.5,422.333 211,421.5C 209.566,421.93 208.399,422.764 207.5,424C 193.369,425.815 180.203,425.648 168,423.5C 164.71,423.428 161.544,423.928 158.5,425C 128.288,425.402 98.121,425.568 68,425.5C 65.5,425.333 63,425.167 60.5,425C 59.4652,423.493 59.6319,421.993 61,420.5C 65.4145,419.697 69.9145,419.197 74.5,419C 70.5138,418.501 66.5138,418.334 62.5,418.5C 66.0208,417.834 69.6875,417.167 73.5,416.5C 65.9648,399.574 68.2982,384.241 80.5,370.5C 84.1165,367.685 88.1165,365.352 92.5,363.5C 97.4305,343.57 109.764,330.903 129.5,325.5C 130.5,291.173 130.833,256.84 130.5,222.5C 126.033,222.867 121.7,222.367 117.5,221C 114.603,219.285 113.269,216.785 113.5,213.5C 113.334,209.486 113.501,205.486 114,201.5C 115.356,202.38 116.856,202.714 118.5,202.5C 118.281,203.675 118.614,204.675 119.5,205.5C 119.016,204.219 119.683,203.219 121.5,202.5 Z M 154.5,338.5 C 151.615,340.727 148.448,341.06 145,339.5C 126.089,340.039 113.922,349.372 108.5,367.5C 108.887,368.72 109.72,369.387 111,369.5C 122.382,362.012 134.216,361.512 146.5,368C 153.719,374.438 158.052,382.438 159.5,392C 163.167,392.333 166.833,392.667 170.5,393C 175.141,394.439 177.141,397.606 176.5,402.5C 176.46,404.429 176.127,406.262 175.5,408C 159.564,409.145 143.564,409.645 127.5,409.5C 112.094,409.492 96.7608,409.159 81.5,408.5C 76.4565,394.8 79.7898,383.633 91.5,375C 94.8931,372.924 98.5598,371.758 102.5,371.5C 104.421,349.079 116.587,336.746 139,334.5C 144.559,334.772 149.726,336.105 154.5,338.5 Z M 209.5,376.5 C 199.139,371.265 188.805,371.265 178.5,376.5C 177.893,376.376 177.56,376.043 177.5,375.5C 181.265,371.208 186.099,369.208 192,369.5C 198.968,369.242 204.802,371.575 209.5,376.5 Z"/></g>
<g><path style="opacity:1" fill="#23456b" d="M 255.5,255.5 C 255.047,256.458 254.381,257.292 253.5,258C 255.333,259.167 256.833,260.667 258,262.5C 257.837,305.512 258.671,348.178 260.5,390.5C 259.054,391.613 257.387,391.78 255.5,391C 252.476,389.468 249.976,387.301 248,384.5C 247.333,343.833 247.333,303.167 248,262.5C 249.162,258.679 251.662,256.346 255.5,255.5 Z"/></g>
<g><path style="opacity:1" fill="#214368" d="M 207.5,362.5 C 204.237,361.518 200.903,360.851 197.5,360.5C 197.189,328.802 197.522,297.135 198.5,265.5C 203.927,264.451 207.427,266.451 209,271.5C 209.667,301.167 209.667,330.833 209,360.5C 208.722,361.416 208.222,362.082 207.5,362.5 Z"/></g>
<g><path style="opacity:1" fill="#c0dbe8" d="M 154.5,338.5 C 167.396,342.981 173.896,351.981 174,365.5C 168.783,368.448 168.283,371.948 172.5,376C 174.197,376.384 175.863,376.218 177.5,375.5C 177.56,376.043 177.893,376.376 178.5,376.5C 188.805,371.265 199.139,371.265 209.5,376.5C 218.42,384.736 220.92,394.736 217,406.5C 215.021,410.956 212.187,414.79 208.5,418C 168.167,418.667 127.833,418.667 87.5,418C 84.3354,415.49 82.3354,412.324 81.5,408.5C 96.7608,409.159 112.094,409.492 127.5,409.5C 143.564,409.645 159.564,409.145 175.5,408C 176.127,406.262 176.46,404.429 176.5,402.5C 177.141,397.606 175.141,394.439 170.5,393C 166.833,392.667 163.167,392.333 159.5,392C 158.052,382.438 153.719,374.438 146.5,368C 134.216,361.512 122.382,362.012 111,369.5C 109.72,369.387 108.887,368.72 108.5,367.5C 113.922,349.372 126.089,340.039 145,339.5C 148.448,341.06 151.615,340.727 154.5,338.5 Z"/></g>
<g><path style="opacity:1" fill="#23466b" d="M 233.5,255.5 C 232.338,256.678 231.338,257.845 230.5,259C 231.354,260.022 232.354,260.855 233.5,261.5C 234.833,303.833 234.833,346.167 233.5,388.5C 232.604,387.494 231.938,387.494 231.5,388.5C 231.855,389.522 232.522,390.189 233.5,390.5C 231.735,391.461 229.735,391.795 227.5,391.5C 227.04,387.189 225.707,383.189 223.5,379.5C 224.499,338.337 224.832,297.003 224.5,255.5C 227.673,254.632 230.673,254.632 233.5,255.5 Z"/></g>
<g><path style="opacity:1" fill="#1a273c" d="M 67.5,349.5 C 71.1817,349.335 74.8484,349.501 78.5,350C 82.8253,355.191 81.492,358.024 74.5,358.5C 69.4889,358.666 64.4889,358.499 59.5,358C 56.0501,355.842 55.7167,353.342 58.5,350.5C 61.4212,349.593 64.4212,349.26 67.5,349.5 Z"/></g>
<g><path style="opacity:0.941" fill="#171c2f" d="M 443.5,348.5 C 448.456,349.979 449.623,352.979 447,357.5C 441.317,359.486 438.984,357.486 440,351.5C 441.145,350.364 442.312,349.364 443.5,348.5 Z"/></g>
<g><path style="opacity:1" fill="#1b3859" d="M 233.5,255.5 C 237.961,255.79 240.795,258.123 242,262.5C 242.667,302.833 242.667,343.167 242,383.5C 240.795,387.877 237.961,390.21 233.5,390.5C 232.522,390.189 231.855,389.522 231.5,388.5C 231.938,387.494 232.604,387.494 233.5,388.5C 234.833,346.167 234.833,303.833 233.5,261.5C 232.354,260.855 231.354,260.022 230.5,259C 231.338,257.845 232.338,256.678 233.5,255.5 Z"/></g>
<g><path style="opacity:0.929" fill="#1a2037" d="M 54.5,404.5 C 60.2728,406.092 60.9395,408.925 56.5,413C 54.6332,413.711 53.1332,413.211 52,411.5C 51.5045,409.527 51.3379,407.527 51.5,405.5C 52.791,405.737 53.791,405.404 54.5,404.5 Z"/></g>
<g><path style="opacity:1" fill="#265483" d="M 278.5,387.5 C 281.389,392.935 284.555,398.268 288,403.5C 292.739,408.744 297.905,413.41 303.5,417.5C 276.833,417.5 250.167,417.5 223.5,417.5C 224.43,412.378 225.764,407.378 227.5,402.5C 243.17,402.667 258.837,402.5 274.5,402C 275.416,401.626 276.25,401.126 277,400.5C 277.465,396.152 277.965,391.819 278.5,387.5 Z"/></g>
<g><path style="opacity:1" fill="#1b253d" d="M 375.5,295.5 C 391.074,301.743 402.408,312.41 409.5,327.5C 413.399,337.101 415.399,347.101 415.5,357.5C 417.816,359.494 420.482,360.494 423.5,360.5C 427.938,365.958 431.605,371.958 434.5,378.5C 446.004,384.843 450.504,394.51 448,407.5C 447.813,411.039 446.646,414.205 444.5,417C 448.694,417.085 451.36,419.085 452.5,423C 451.899,424.605 450.899,425.938 449.5,427C 389.501,427.5 329.501,427.667 269.5,427.5C 280.833,426.833 292.167,426.167 303.5,425.5C 303.918,424.778 304.584,424.278 305.5,424C 304.692,423.692 304.025,423.192 303.5,422.5C 278.106,421.258 252.94,421.258 228,422.5C 226.581,421.54 225.081,420.707 223.5,420C 250.234,420.83 276.901,419.997 303.5,417.5C 297.905,413.41 292.739,408.744 288,403.5C 284.555,398.268 281.389,392.935 278.5,387.5C 272.141,372.121 271.141,356.454 275.5,340.5C 276.496,340.414 277.329,340.748 278,341.5C 278.465,340.069 279.299,338.903 280.5,338C 277.949,336.484 278.282,335.651 281.5,335.5C 281.351,336.552 281.517,337.552 282,338.5C 283.011,337.663 284.178,337.33 285.5,337.5C 285.227,335.549 285.893,334.049 287.5,333C 287.004,331.004 286.004,329.337 284.5,328C 286.23,326.148 287.396,326.314 288,328.5C 288.133,325.586 289.3,323.253 291.5,321.5C 289.56,318.804 290.227,317.471 293.5,317.5C 293.238,318.978 293.571,320.311 294.5,321.5C 295.696,321.154 295.696,320.654 294.5,320C 296.886,319.716 297.552,318.716 296.5,317C 298.221,316.261 299.887,315.427 301.5,314.5C 301.291,313.914 300.957,313.414 300.5,313C 301.572,311.716 302.905,311.383 304.5,312C 308.287,308.933 312.287,306.1 316.5,303.5C 317.718,302.197 317.385,301.197 315.5,300.5C 316.59,298.997 317.757,298.664 319,299.5C 319.219,298.062 319.719,296.729 320.5,295.5C 322.167,296.833 323.833,296.833 325.5,295.5C 327.898,297.104 330.565,298.104 333.5,298.5C 340.705,296.799 348.039,295.799 355.5,295.5C 357.481,295.437 359.148,296.104 360.5,297.5C 364.221,295.665 366.554,296.665 367.5,300.5C 371.179,300.333 373.846,298.666 375.5,295.5 Z M 404.5,363.5 C 393.769,363.696 384.603,367.696 377,375.5C 374.319,380.874 371.152,385.874 367.5,390.5C 362.443,391.778 358.276,394.445 355,398.5C 354.517,399.448 354.351,400.448 354.5,401.5C 353.978,403.219 352.978,404.552 351.5,405.5C 351.491,396.171 356.157,390.838 365.5,389.5C 370.448,368.901 383.448,360.235 404.5,363.5 Z M 308.5,311.5 C 308.5,312.167 308.5,312.833 308.5,313.5C 301.059,320.111 294.892,327.778 290,336.5C 289.184,337.823 288.017,338.489 286.5,338.5C 290.926,327.079 298.259,318.079 308.5,311.5 Z M 369.5,322.5 C 370.501,323.789 370.334,325.122 369,326.5C 347.972,347.862 326.639,368.862 305,389.5C 304.283,388.956 303.783,388.289 303.5,387.5C 303.5,387.167 303.5,386.833 303.5,386.5C 324.884,365.616 346.218,344.45 367.5,323C 368.094,322.536 368.761,322.369 369.5,322.5 Z"/></g>
<g><path style="opacity:1" fill="#8b5560" d="M 335.5,412.5 C 338.167,412.5 340.833,412.5 343.5,412.5C 343.383,414.484 344.05,416.15 345.5,417.5C 338.678,418.818 332.011,418.818 325.5,417.5C 328.833,417.5 332.167,417.5 335.5,417.5C 337.833,417.5 340.167,417.5 342.5,417.5C 342.5,416.167 342.5,414.833 342.5,413.5C 339.941,413.802 337.607,413.468 335.5,412.5 Z"/></g>
<g><path style="opacity:1" fill="#224c77" d="M 431.5,388.5 C 440.57,395.942 441.737,404.608 435,414.5C 433.745,415.211 432.579,416.044 431.5,417C 407.5,417.667 383.5,417.667 359.5,417C 358.584,416.722 357.918,416.222 357.5,415.5C 378.567,415.966 399.567,415.466 420.5,414C 431.601,408.898 435.268,400.398 431.5,388.5 Z"/></g>
<g><path style="opacity:1" fill="#306fa9" d="M 415.5,368.5 C 421.812,372.449 425.646,378.116 427,385.5C 428.652,386.399 430.152,387.399 431.5,388.5C 435.268,400.398 431.601,408.898 420.5,414C 399.567,415.466 378.567,415.966 357.5,415.5C 353.498,413.515 351.498,410.182 351.5,405.5C 352.978,404.552 353.978,403.219 354.5,401.5C 354.253,404.505 355.253,407.005 357.5,409C 373.5,409.667 389.5,409.667 405.5,409C 411.552,404.777 411.885,400.111 406.5,395C 404.975,393.991 403.308,393.491 401.5,393.5C 402.544,388.819 400.877,385.652 396.5,384C 401.414,382.21 406.081,379.876 410.5,377C 413.072,374.687 414.739,371.854 415.5,368.5 Z"/></g>
<g><path style="opacity:1" fill="#2a537c" d="M 370.5,352.5 C 370.19,355.713 370.523,358.713 371.5,361.5C 364.331,366.684 359.998,373.684 358.5,382.5C 347.147,384.859 341.814,391.859 342.5,403.5C 336.441,403.537 330.775,402.037 325.5,399C 324.549,398.282 324.383,397.449 325,396.5C 339.765,381.232 354.932,366.565 370.5,352.5 Z"/></g>
<g><path style="opacity:1" fill="#2f2030" d="M 363.5,347.5 C 363.631,348.239 363.464,348.906 363,349.5C 355.279,357.221 347.613,364.887 340,372.5C 340.437,374.757 340.937,377.09 341.5,379.5C 339.516,379.617 337.85,378.95 336.5,377.5C 334.205,380.647 331.205,382.814 327.5,384C 323,388.5 318.5,393 314,397.5C 313.51,398.793 313.343,400.127 313.5,401.5C 312.387,400.054 312.22,398.387 313,396.5C 330.033,380.3 346.866,363.966 363.5,347.5 Z"/></g>
<g><path style="opacity:1" fill="#68a1ca" d="M 404.5,363.5 C 408.548,364.358 412.215,366.025 415.5,368.5C 414.739,371.854 413.072,374.687 410.5,377C 406.081,379.876 401.414,382.21 396.5,384C 400.877,385.652 402.544,388.819 401.5,393.5C 403.308,393.491 404.975,393.991 406.5,395C 411.885,400.111 411.552,404.777 405.5,409C 389.5,409.667 373.5,409.667 357.5,409C 355.253,407.005 354.253,404.505 354.5,401.5C 354.351,400.448 354.517,399.448 355,398.5C 358.276,394.445 362.443,391.778 367.5,390.5C 371.152,385.874 374.319,380.874 377,375.5C 384.603,367.696 393.769,363.696 404.5,363.5 Z"/></g>
<g><path style="opacity:1" fill="#4578a5" d="M 377.5,345.5 C 378.482,348.962 378.815,352.629 378.5,356.5C 376.343,358.412 374.009,360.079 371.5,361.5C 370.523,358.713 370.19,355.713 370.5,352.5C 372.5,349.833 374.833,347.5 377.5,345.5 Z"/></g>
<g><path style="opacity:1" fill="#29527d" d="M 378.5,356.5 C 378.815,352.629 378.482,348.962 377.5,345.5C 381.602,339.982 384.769,340.648 387,347.5C 387.497,349.81 387.663,352.143 387.5,354.5C 384.308,354.405 381.308,355.071 378.5,356.5 Z"/></g>
<g><path style="opacity:1" fill="#c6565d" d="M 389.5,316.5 C 393.471,319.776 396.471,323.776 398.5,328.5C 398.945,333.267 400.445,337.6 403,341.5C 403.81,345.358 403.643,349.024 402.5,352.5C 401.178,341.027 396.844,330.861 389.5,322C 390.5,321.667 391.5,321.333 392.5,321C 390.624,320.082 389.624,318.582 389.5,316.5 Z"/></g>
<g><path style="opacity:1" fill="#ae5665" d="M 398.5,328.5 C 403.763,335.867 406.096,344.201 405.5,353.5C 402.615,353.806 399.948,353.473 397.5,352.5C 399.167,352.5 400.833,352.5 402.5,352.5C 403.643,349.024 403.81,345.358 403,341.5C 400.445,337.6 398.945,333.267 398.5,328.5 Z"/></g>
<g><path style="opacity:1" fill="#c5535d" d="M 393.5,336.5 C 391.372,333.87 389.039,331.37 386.5,329C 384.833,328.333 383.167,328.333 381.5,329C 375.27,335.062 369.27,341.229 363.5,347.5C 346.866,363.966 330.033,380.3 313,396.5C 312.22,398.387 312.387,400.054 313.5,401.5C 314.574,402.885 315.907,404.051 317.5,405C 323.454,407.817 329.454,410.317 335.5,412.5C 337.607,413.468 339.941,413.802 342.5,413.5C 342.5,414.833 342.5,416.167 342.5,417.5C 340.167,417.5 337.833,417.5 335.5,417.5C 326.185,414.005 317.518,409.171 309.5,403C 307.653,400.421 307.153,397.588 308,394.5C 311.833,391.333 315.667,388.167 319.5,385C 339.519,364.816 359.852,344.649 380.5,324.5C 382.167,323.167 383.833,323.167 385.5,324.5C 387.607,327.81 390.107,330.81 393,333.5C 393.483,334.448 393.649,335.448 393.5,336.5 Z"/></g>
<g><path style="opacity:1" fill="#f27e77" d="M 385.5,313.5 C 387.404,313.738 388.738,314.738 389.5,316.5C 389.624,318.582 390.624,320.082 392.5,321C 391.5,321.333 390.5,321.667 389.5,322C 396.844,330.861 401.178,341.027 402.5,352.5C 400.833,352.5 399.167,352.5 397.5,352.5C 396.749,347.005 395.416,341.672 393.5,336.5C 393.649,335.448 393.483,334.448 393,333.5C 390.107,330.81 387.607,327.81 385.5,324.5C 383.833,323.167 382.167,323.167 380.5,324.5C 359.852,344.649 339.519,364.816 319.5,385C 315.667,388.167 311.833,391.333 308,394.5C 307.153,397.588 307.653,400.421 309.5,403C 317.518,409.171 326.185,414.005 335.5,417.5C 332.167,417.5 328.833,417.5 325.5,417.5C 295.259,406.05 280.759,384.05 282,351.5C 282.751,346.789 284.251,342.456 286.5,338.5C 288.017,338.489 289.184,337.823 290,336.5C 294.892,327.778 301.059,320.111 308.5,313.5C 312.732,311.69 317.065,309.19 321.5,306C 325.751,305.274 329.751,303.941 333.5,302C 341.48,300.334 349.48,300.167 357.5,301.5C 366.816,305.711 376.149,309.711 385.5,313.5 Z M 369.5,322.5 C 370.501,323.789 370.334,325.122 369,326.5C 347.972,347.862 326.639,368.862 305,389.5C 304.283,388.956 303.783,388.289 303.5,387.5C 303.5,387.167 303.5,386.833 303.5,386.5C 324.884,365.616 346.218,344.45 367.5,323C 368.094,322.536 368.761,322.369 369.5,322.5 Z"/></g>
<g><path style="opacity:1" fill="#c45861" d="M 297.5,337.5 C 289.417,352.875 289.584,368.209 298,383.5C 299.583,384.971 301.417,385.971 303.5,386.5C 303.5,386.833 303.5,387.167 303.5,387.5C 300.131,389.192 297.298,388.526 295,385.5C 291.858,380.882 289.524,375.882 288,370.5C 287.005,360.365 287.505,350.365 289.5,340.5C 291.124,340.36 292.29,341.027 293,342.5C 294.044,341.377 294.71,340.044 295,338.5C 295.671,337.748 296.504,337.414 297.5,337.5 Z"/></g>
<g><path style="opacity:1" fill="#1b2640" d="M 357.5,311.5 C 361.985,311.717 365.985,313.217 369.5,316C 370.333,318.081 370.333,320.248 369.5,322.5C 368.761,322.369 368.094,322.536 367.5,323C 346.218,344.45 324.884,365.616 303.5,386.5C 301.417,385.971 299.583,384.971 298,383.5C 289.584,368.209 289.417,352.875 297.5,337.5C 303.47,325.527 312.803,317.527 325.5,313.5C 336.112,312.091 346.778,311.425 357.5,311.5 Z"/></g>
<g><path style="opacity:1" fill="#709ec1" d="M 305.5,340.5 C 306.494,349.986 306.827,359.652 306.5,369.5C 305.535,372.085 304.201,372.585 302.5,371C 301.383,363.537 301.216,356.037 302,348.5C 302.906,345.69 304.073,343.024 305.5,340.5 Z"/></g>
<g><path style="opacity:1" fill="#214265" d="M 329.5,321.5 C 329.174,330.017 329.507,338.35 330.5,346.5C 323.106,354.896 315.106,362.562 306.5,369.5C 306.827,359.652 306.494,349.986 305.5,340.5C 309.79,333.35 315.457,327.516 322.5,323C 324.74,322.023 327.073,321.523 329.5,321.5 Z"/></g>
<g><path style="opacity:1" fill="#2c5783" d="M 336.5,319.5 C 339.146,318.836 341.979,318.502 345,318.5C 349.037,318.291 352.87,318.957 356.5,320.5C 351.2,326.467 345.533,332.134 339.5,337.5C 339.5,331.5 339.5,325.5 339.5,319.5C 338.5,319.5 337.5,319.5 336.5,319.5 Z"/></g>
<g><path style="opacity:1" fill="#45759f" d="M 336.5,319.5 C 337.5,319.5 338.5,319.5 339.5,319.5C 339.5,325.5 339.5,331.5 339.5,337.5C 336.833,340.833 333.833,343.833 330.5,346.5C 329.507,338.35 329.174,330.017 329.5,321.5C 331.599,320.388 333.933,319.721 336.5,319.5 Z"/></g>
<g><path style="opacity:1" fill="#eca3a1" d="M 385.5,313.5 C 376.149,309.711 366.816,305.711 357.5,301.5C 349.48,300.167 341.48,300.334 333.5,302C 329.751,303.941 325.751,305.274 321.5,306C 317.065,309.19 312.732,311.69 308.5,313.5C 308.5,312.833 308.5,312.167 308.5,311.5C 313.197,306.813 318.864,303.646 325.5,302C 345.173,296.852 363.84,299.186 381.5,309C 383.041,310.371 384.375,311.871 385.5,313.5 Z"/></g>
<g><path style="opacity:1" fill="#342031" d="M 357.5,311.5 C 346.778,311.425 336.112,312.091 325.5,313.5C 333.664,309.771 342.331,308.604 351.5,310C 353.708,310.191 355.708,310.691 357.5,311.5 Z"/></g>
<g><path style="opacity:0.647" fill="#171c2b" d="M 48.5,419.5 C 53.159,419.811 54.4923,422.144 52.5,426.5C 50.9255,427.631 49.2588,427.798 47.5,427C 46.0825,424.257 46.4159,421.757 48.5,419.5 Z"/></g>
<g><path style="opacity:0.239" fill="#111832" d="M 62.5,418.5 C 66.5138,418.334 70.5138,418.501 74.5,419C 69.9145,419.197 65.4145,419.697 61,420.5C 59.6319,421.993 59.4652,423.493 60.5,425C 63,425.167 65.5,425.333 68,425.5C 98.121,425.568 128.288,425.402 158.5,425C 161.544,423.928 164.71,423.428 168,423.5C 180.203,425.648 193.369,425.815 207.5,424C 208.399,422.764 209.566,421.93 211,421.5C 213.5,422.333 216,423.167 218.5,424C 217.5,424.333 216.5,424.667 215.5,425C 244.831,425.5 274.165,425.667 303.5,425.5C 292.167,426.167 280.833,426.833 269.5,427.5C 200.166,427.667 130.833,427.5 61.5,427C 58.6936,425.695 57.8603,423.528 59,420.5C 59.8159,419.177 60.9826,418.511 62.5,418.5 Z"/></g>
</svg>
