<svg width="215" height="208" viewBox="0 0 215 208" fill="none" xmlns="http://www.w3.org/2000/svg">
<path d="M214.057 115.924C214.041 120.343 197.686 123.864 177.528 123.789C157.37 123.715 141.042 120.073 141.058 115.655C141.074 111.236 157.429 107.715 177.587 107.789C197.745 107.864 214.074 111.506 214.057 115.924Z" fill="url(#paint0_linear_9_127)"/>
<path d="M184.456 30.8423C187.82 33.7074 179.949 48.47 166.877 63.8154C153.805 79.1608 140.482 89.2781 137.118 86.413C133.755 83.5479 141.625 68.7853 154.697 53.4399C167.769 38.0945 181.093 27.9772 184.456 30.8423Z" fill="url(#paint1_linear_9_127)"/>
<path d="M131.594 0.826348C136.011 0.921214 139.241 17.336 138.808 37.4897C138.375 57.6434 134.444 73.9044 130.026 73.8095C125.609 73.7147 122.379 57.2999 122.812 37.1462C123.245 16.9924 127.177 0.731482 131.594 0.826348Z" fill="url(#paint2_linear_9_127)"/>
<path d="M66.9098 0.0266673C71.2626 -0.731116 77.594 14.754 81.0514 34.6137C84.5088 54.4734 83.7829 71.1872 79.4301 71.945C75.0773 72.7028 68.7458 57.2176 65.2885 37.3579C61.8311 17.4982 62.557 0.784451 66.9098 0.0266673Z" fill="url(#paint3_linear_9_127)"/>
<path d="M119.878 136.182C123.612 137.026 123.039 153.65 118.597 173.313C114.154 192.976 107.526 208.232 103.791 207.388C100.056 206.544 100.629 189.92 105.072 170.257C109.514 150.594 116.143 135.339 119.878 136.182Z" fill="url(#paint4_linear_9_127)"/>
<path d="M4.91024 56.3988C7.05418 53.2264 22.3319 59.8047 39.034 71.0919C55.7361 82.3791 67.5378 94.101 65.3939 97.2734C63.2499 100.446 47.9722 93.8676 31.2701 82.5804C14.568 71.2932 2.76631 59.5713 4.91024 56.3988Z" fill="url(#paint5_linear_9_127)"/>
<path d="M85.9107 133.972C88.9066 136.356 81.1593 151.076 68.6066 166.849C56.0538 182.622 43.449 193.475 40.453 191.091C37.457 188.707 45.2043 173.987 57.7571 158.214C70.3099 142.441 82.9147 131.587 85.9107 133.972Z" fill="url(#paint6_linear_9_127)"/>
<path d="M0.060147 144.677C-1.06201 141.016 13.6524 133.259 32.9256 127.352C52.1989 121.444 68.7326 119.622 69.8548 123.283C70.9769 126.944 56.2626 134.701 36.9893 140.609C17.716 146.517 1.1823 148.338 0.060147 144.677Z" fill="url(#paint7_linear_9_127)"/>
<path d="M132.054 134.27C134.837 131.64 148.316 141.388 162.158 156.042C176.001 170.696 184.967 184.706 182.184 187.336C179.4 189.965 165.922 180.218 152.079 165.564C138.236 150.91 129.27 136.899 132.054 134.27Z" fill="url(#paint8_linear_9_127)"/>
<path d="M158.028 103.322C158.028 130.937 134.299 153.322 105.028 153.322C75.7572 153.322 52.0283 130.937 52.0283 103.322C52.0283 75.7082 75.7572 53.3224 105.028 53.3224C134.299 53.3224 158.028 75.7082 158.028 103.322Z" fill="url(#paint9_linear_9_127)"/>
<defs>
<linearGradient id="paint0_linear_9_127" x1="105.028" y1="53.3224" x2="105.028" y2="153.322" gradientUnits="userSpaceOnUse">
<stop stop-color="#77A8A3"/>
<stop offset="1" stop-color="#EC032A"/>
</linearGradient>
<linearGradient id="paint1_linear_9_127" x1="105.028" y1="53.3224" x2="105.028" y2="153.322" gradientUnits="userSpaceOnUse">
<stop stop-color="#77A8A3"/>
<stop offset="1" stop-color="#EC032A"/>
</linearGradient>
<linearGradient id="paint2_linear_9_127" x1="105.028" y1="53.3224" x2="105.028" y2="153.322" gradientUnits="userSpaceOnUse">
<stop stop-color="#77A8A3"/>
<stop offset="1" stop-color="#EC032A"/>
</linearGradient>
<linearGradient id="paint3_linear_9_127" x1="105.028" y1="53.3224" x2="105.028" y2="153.322" gradientUnits="userSpaceOnUse">
<stop stop-color="#77A8A3"/>
<stop offset="1" stop-color="#EC032A"/>
</linearGradient>
<linearGradient id="paint4_linear_9_127" x1="105.028" y1="53.3224" x2="105.028" y2="153.322" gradientUnits="userSpaceOnUse">
<stop stop-color="#77A8A3"/>
<stop offset="1" stop-color="#EC032A"/>
</linearGradient>
<linearGradient id="paint5_linear_9_127" x1="105.028" y1="53.3224" x2="105.028" y2="153.322" gradientUnits="userSpaceOnUse">
<stop stop-color="#77A8A3"/>
<stop offset="1" stop-color="#EC032A"/>
</linearGradient>
<linearGradient id="paint6_linear_9_127" x1="105.028" y1="53.3224" x2="105.028" y2="153.322" gradientUnits="userSpaceOnUse">
<stop stop-color="#77A8A3"/>
<stop offset="1" stop-color="#EC032A"/>
</linearGradient>
<linearGradient id="paint7_linear_9_127" x1="105.028" y1="53.3224" x2="105.028" y2="153.322" gradientUnits="userSpaceOnUse">
<stop stop-color="#77A8A3"/>
<stop offset="1" stop-color="#EC032A"/>
</linearGradient>
<linearGradient id="paint8_linear_9_127" x1="105.028" y1="53.3224" x2="105.028" y2="153.322" gradientUnits="userSpaceOnUse">
<stop stop-color="#77A8A3"/>
<stop offset="1" stop-color="#EC032A"/>
</linearGradient>
<linearGradient id="paint9_linear_9_127" x1="105.028" y1="53.3224" x2="105.028" y2="153.322" gradientUnits="userSpaceOnUse">
<stop stop-color="#77A8A3"/>
<stop offset="1" stop-color="#EC032A"/>
</linearGradient>
</defs>
</svg>
