<svg width="142" height="54" viewBox="0 0 142 54" fill="none" xmlns="http://www.w3.org/2000/svg">
<path d="M92.19 53.07H73.29L75.39 50.34V45.37H80.99L75.39 42.85V37.18H72.31V32.7L70.28 37.25H62.51V50.62L64.33 53.07H45.43L47.53 50.34V45.37H53.13L47.53 42.85V11L45.01 8.27H37.66V50.62L39.48 53.07H20.58L22.68 50.34V45.37H28.28L22.68 42.85V10.93L28.77 8.27H12.67L12.6 16.18L2.87 12.4V3.86L0.07 0.359998H65.24L62.44 3.86V13.66H58.03L62.51 15.69V27.87H74.9L75.39 27.45V11.07L72.59 7.92H93.66L90.3 10.51V13.66H85.89L90.37 15.69V50.62L92.19 53.07ZM141.89 53.07H96.25L98.56 49.57V45.16L104.3 40.05L98.56 42.99V18.56L104.65 15.83H98.56V11.49L96.25 7.99H141.89L139.09 11.49V25.77L113.12 38.37V45.16H121.59C122.337 45.16 122.967 44.9033 123.48 44.39C124.04 43.8767 124.32 43.2467 124.32 42.5V39.42L139.09 32.98V46.7L133.77 49.57H139.09L141.89 53.07ZM113.12 31.65L114.73 26.68L124.32 22.13V17.79C124.32 17.2767 124.133 16.8333 123.76 16.46C123.387 16.04 122.92 15.83 122.36 15.83H113.12V31.65Z" fill="black"/>
</svg>
